<svg width="216" height="151" viewBox="0 0 216 151" fill="none" xmlns="http://www.w3.org/2000/svg">
<g clip-path="url(#clip0_2_182731)">
<path d="M110.082 151.498C163.314 151.498 206.466 141.447 206.466 129.047C206.466 116.648 163.314 106.596 110.082 106.596C56.8512 106.596 13.6989 116.648 13.6989 129.047C13.6989 141.447 56.8512 151.498 110.082 151.498Z" fill="#E1BA48"/>
<path opacity="0.5" d="M110.082 151.498C163.314 151.498 206.466 141.447 206.466 129.047C206.466 116.648 163.314 106.596 110.082 106.596C56.8512 106.596 13.6989 116.648 13.6989 129.047C13.6989 141.447 56.8512 151.498 110.082 151.498Z" fill="#E1BA48"/>
<path d="M110.79 1H80.0298V39.8436H110.79V1Z" stroke="#1F2122" stroke-width="0.432" stroke-linecap="round" stroke-linejoin="round"/>
<path d="M108.834 3.46936H81.9851V37.3742H108.834V3.46936Z" stroke="#1F2122" stroke-width="0.432" stroke-linecap="round" stroke-linejoin="round"/>
<path d="M108.834 19.4111H81.9851V22.5535H108.834V19.4111Z" stroke="#1F2122" stroke-width="0.432" stroke-linecap="round" stroke-linejoin="round"/>
<path d="M82.076 23.9133H108.821" stroke="#1F2122" stroke-width="0.432" stroke-linecap="round" stroke-linejoin="round"/>
<path d="M82.076 25.2502H108.821" stroke="#1F2122" stroke-width="0.432" stroke-linecap="round" stroke-linejoin="round"/>
<path d="M82.076 26.5873H108.821" stroke="#1F2122" stroke-width="0.432" stroke-linecap="round" stroke-linejoin="round"/>
<path d="M82.076 27.9243H108.821" stroke="#1F2122" stroke-width="0.432" stroke-linecap="round" stroke-linejoin="round"/>
<path d="M82.076 29.2612H108.821" stroke="#1F2122" stroke-width="0.432" stroke-linecap="round" stroke-linejoin="round"/>
<path d="M82.076 30.5961H108.821" stroke="#1F2122" stroke-width="0.432" stroke-linecap="round" stroke-linejoin="round"/>
<path d="M82.076 31.9331H108.821" stroke="#1F2122" stroke-width="0.432" stroke-linecap="round" stroke-linejoin="round"/>
<path d="M82.076 33.27H108.821" stroke="#1F2122" stroke-width="0.432" stroke-linecap="round" stroke-linejoin="round"/>
<path d="M82.076 34.6071H108.821" stroke="#1F2122" stroke-width="0.432" stroke-linecap="round" stroke-linejoin="round"/>
<path d="M82.076 35.9418H108.821" stroke="#1F2122" stroke-width="0.432" stroke-linecap="round" stroke-linejoin="round"/>
<path d="M146.905 10.7526L133.472 9.72839L132.05 28.3855L145.483 29.4097L146.905 10.7526Z" stroke="#1F2122" stroke-width="0.432" stroke-linecap="round" stroke-linejoin="round"/>
<path d="M145.479 12.4453L134.625 11.6178L133.476 26.6926L144.329 27.5201L145.479 12.4453Z" stroke="#1F2122" stroke-width="0.432" stroke-linecap="round" stroke-linejoin="round"/>
<path d="M128.098 20.3958H117.771V33.8681H128.098V20.3958Z" stroke="#1F2122" stroke-width="0.432" stroke-linecap="round" stroke-linejoin="round"/>
<path d="M126.836 22.0442H119.033V32.2241H126.836V22.0442Z" stroke="#1F2122" stroke-width="0.432" stroke-linecap="round" stroke-linejoin="round"/>
<path d="M69.9064 40.9279H66.9774C66.3785 40.9279 65.8931 41.4133 65.8931 42.0122V48.2459C65.8931 48.8448 66.3785 49.3303 66.9774 49.3303H69.9064C70.5052 49.3303 70.9907 48.8448 70.9907 48.2459V42.0122C70.9907 41.4133 70.5052 40.9279 69.9064 40.9279Z" fill="#E1BA48" stroke="#1F2122" stroke-width="0.432" stroke-linecap="round" stroke-linejoin="round"/>
<path d="M70.1484 45.4034C70.1493 45.7411 70.0499 46.0714 69.8629 46.3526C69.6759 46.6338 69.4097 46.8531 69.098 46.983C68.7863 47.1128 68.443 47.1472 68.1117 47.0818C67.7805 47.0165 67.476 46.8543 67.2369 46.6158C66.9978 46.3774 66.8349 46.0733 66.7687 45.7422C66.7025 45.4111 66.736 45.0677 66.8651 44.7557C66.9941 44.4436 67.2128 44.1769 67.4935 43.9892C67.7742 43.8015 68.1043 43.7013 68.442 43.7013C68.8921 43.7069 69.3222 43.8879 69.6409 44.2057C69.9596 44.5236 70.1417 44.9533 70.1484 45.4034Z" fill="#E1BA48" stroke="#1F2122" stroke-width="0.432" stroke-linecap="round" stroke-linejoin="round"/>
<path d="M70.5198 40.4526H66.3683V41.0402H70.5198V40.4526Z" fill="#E1BA48" stroke="#1F2122" stroke-width="0.432" stroke-linecap="round" stroke-linejoin="round"/>
<path d="M70.5198 49.2914H66.3683V49.8789H70.5198V49.2914Z" fill="#E1BA48" stroke="#1F2122" stroke-width="0.432" stroke-linecap="round" stroke-linejoin="round"/>
<path d="M82.6892 48.5483V45.6194C82.6892 45.0205 82.2037 44.535 81.6049 44.535H75.3711C74.7723 44.535 74.2868 45.0205 74.2868 45.6194V48.5483C74.2868 49.1472 74.7723 49.6326 75.3711 49.6326H81.6049C82.2037 49.6326 82.6892 49.1472 82.6892 48.5483Z" fill="#E1BA48" stroke="#1F2122" stroke-width="0.432" stroke-linecap="round" stroke-linejoin="round"/>
<path d="M78.2137 48.7858C77.876 48.7867 77.5456 48.6873 77.2645 48.5004C76.9833 48.3134 76.7639 48.0472 76.6341 47.7355C76.5042 47.4237 76.4698 47.0805 76.5352 46.7492C76.6005 46.4179 76.7627 46.1134 77.0012 45.8744C77.2397 45.6353 77.5437 45.4723 77.8748 45.4062C78.206 45.34 78.5493 45.3735 78.8613 45.5025C79.1734 45.6316 79.4402 45.8503 79.6278 46.131C79.8155 46.4117 79.9157 46.7418 79.9157 47.0794C79.9102 47.5295 79.7292 47.9597 79.4113 48.2784C79.0934 48.5971 78.6637 48.7791 78.2137 48.7858Z" fill="#E1BA48" stroke="#1F2122" stroke-width="0.432" stroke-linecap="round" stroke-linejoin="round"/>
<path d="M83.1603 49.1574V45.0059H82.5728V49.1574H83.1603Z" fill="#E1BA48" stroke="#1F2122" stroke-width="0.432" stroke-linecap="round" stroke-linejoin="round"/>
<path d="M74.3258 49.1574V45.0059H73.7383V49.1574H74.3258Z" fill="#E1BA48" stroke="#1F2122" stroke-width="0.432" stroke-linecap="round" stroke-linejoin="round"/>
<path d="M92.2797 41.3599H86.5298L87.3938 49.7709H91.42L92.2797 41.3599Z" fill="#E1BA48" stroke="#1F2122" stroke-width="0.432" stroke-linecap="round" stroke-linejoin="round"/>
<path d="M87.4932 45.2997L87.8517 48.8118H90.9621L91.3207 45.2997H87.4932Z" fill="#E1BA48"/>
<path d="M49.8962 44.7942H44.2845V49.6067H49.8962V44.7942Z" fill="#1F2122" stroke="#1F2122" stroke-width="0.432" stroke-linecap="round" stroke-linejoin="round"/>
<path d="M63.4308 22.745H30.7543V45.8008H63.4308V22.745Z" fill="#1F2122" stroke="#1F2122" stroke-width="0.432" stroke-linecap="round" stroke-linejoin="round"/>
<path d="M62.0223 24.5464H32.1538V43.9907H62.0223V24.5464Z" fill="#2B2930" stroke="#1F2122" stroke-width="0.432" stroke-linecap="round" stroke-linejoin="round"/>
<path d="M63.7764 49.0062H39.0919V49.7752H63.7764V49.0062Z" fill="#E1BA48" stroke="#1F2122" stroke-width="0.432" stroke-linecap="round" stroke-linejoin="round"/>
<path d="M104.479 45.2824C104.479 45.2824 97.8481 35.1693 98.8633 32.8494C99.8785 30.5296 103.339 34.504 103.339 34.504C103.339 34.504 98.2023 20.9089 101.684 17.9281C105.166 14.9473 106.324 30.1969 106.324 30.1969C106.324 30.1969 109.473 21.4101 111.962 24.7235C114.45 28.0369 108.147 35.0008 108.147 35.0008C108.147 35.0008 112.467 35.1693 111.301 37.9859C110.134 40.8025 106.981 43.7877 106.981 43.7877L104.479 45.2824Z" fill="#E1BA48"/>
<path d="M102.656 42.9625C102.656 42.9625 98.6777 37.312 100.656 36.1629C102.635 35.0137 103.641 38.4827 103.641 38.4827C103.641 38.4827 103.81 23.2331 106.959 24.3909C110.108 25.5486 108.946 34.8366 108.946 34.8366C108.946 34.8366 112.925 32.1841 112.761 35.9987C112.597 39.8133 107.292 43.1267 107.292 43.1267" stroke="#1F2122" stroke-width="0.432" stroke-linecap="round" stroke-linejoin="round"/>
<path d="M106.302 43.2909L102.82 39.4807" stroke="#1F2122" stroke-width="0.432" stroke-linecap="round" stroke-linejoin="round"/>
<path d="M106.471 45.1139L106.302 35.666" stroke="#1F2122" stroke-width="0.432" stroke-linecap="round" stroke-linejoin="round"/>
<path d="M106.635 41.9647L109.784 37.8218" stroke="#1F2122" stroke-width="0.432" stroke-linecap="round" stroke-linejoin="round"/>
<path d="M109.452 42.2974H100.669L101.546 50.0906H108.575L109.452 42.2974Z" fill="#1F2122" stroke="#1F2122" stroke-width="0.432" stroke-linecap="round" stroke-linejoin="round"/>
<path d="M110.778 49.9609H27.3413V95.4376H110.778V49.9609Z" fill="#E1BA48" stroke="#1F2122" stroke-width="0.432" stroke-linecap="round" stroke-linejoin="round"/>
<path d="M79.8036 49.9609H30.4951V95.4376H79.8036V49.9609Z" fill="#2B2930" stroke="#1F2122" stroke-width="0.432" stroke-linecap="round" stroke-linejoin="round"/>
<path d="M111.974 49.9609H26.149V53.0368H111.974V49.9609Z" fill="#1F2122" stroke="#1F2122" stroke-width="0.432" stroke-linecap="round" stroke-linejoin="round"/>
<path d="M108.626 73.4661H82.3911V86.3181H108.626V73.4661Z" fill="#E1BA48" stroke="#1F2122" stroke-width="0.432" stroke-linecap="round" stroke-linejoin="round"/>
<path d="M108.626 56.212H82.3911V69.064H108.626V56.212Z" fill="#2B2930" stroke="#1F2122" stroke-width="0.432" stroke-linecap="round" stroke-linejoin="round"/>
<path d="M100.354 78.3953H90.6683V81.389H100.354V78.3953Z" fill="#1F2122" stroke="#1F2122" stroke-width="0.432" stroke-linecap="round" stroke-linejoin="round"/>
<path d="M77.8164 85.791H51.5811V95.2993H77.8164V85.791Z" fill="#E1BA48" stroke="#1F2122" stroke-width="0.432" stroke-linecap="round" stroke-linejoin="round"/>
<path d="M62.1433 82.4474H35.908V95.2994H62.1433V82.4474Z" fill="#E1BA48" stroke="#1F2122" stroke-width="0.432" stroke-linecap="round" stroke-linejoin="round"/>
<path d="M60.5579 82.4474H34.3225V95.2994H60.5579V82.4474Z" fill="#E1BA48" stroke="#1F2122" stroke-width="0.432" stroke-linecap="round" stroke-linejoin="round"/>
<path d="M52.2852 87.3766H42.5997V90.3703H52.2852V87.3766Z" fill="#1F2122" stroke="#1F2122" stroke-width="0.432" stroke-linecap="round" stroke-linejoin="round"/>
<path d="M46.1426 65.8412V62.9122C46.1426 62.3133 45.6571 61.8279 45.0583 61.8279H38.8245C38.2256 61.8279 37.7402 62.3133 37.7402 62.9122V65.8412C37.7402 66.44 38.2256 66.9255 38.8245 66.9255H45.0583C45.6571 66.9255 46.1426 66.44 46.1426 65.8412Z" fill="#E1BA48" stroke="#1F2122" stroke-width="0.432" stroke-linecap="round" stroke-linejoin="round"/>
<path d="M41.6626 66.0831C41.3248 66.0839 40.9942 65.9845 40.713 65.7973C40.4317 65.6101 40.2123 65.3437 40.0826 65.0317C39.9529 64.7197 39.9188 64.3763 39.9845 64.0449C40.0502 63.7134 40.2128 63.409 40.4517 63.1701C40.6906 62.9312 40.9951 62.7686 41.3265 62.7029C41.6579 62.6372 42.0013 62.6713 42.3133 62.801C42.6253 62.9307 42.8917 63.1501 43.0789 63.4314C43.2661 63.7126 43.3656 64.0431 43.3647 64.381C43.3647 64.8324 43.1854 65.2654 42.8662 65.5846C42.547 65.9038 42.114 66.0831 41.6626 66.0831Z" fill="#E1BA48" stroke="#1F2122" stroke-width="0.432" stroke-linecap="round" stroke-linejoin="round"/>
<path d="M46.6134 66.4546V62.3031H46.0259V66.4546H46.6134Z" fill="#E1BA48" stroke="#1F2122" stroke-width="0.432" stroke-linecap="round" stroke-linejoin="round"/>
<path d="M37.7748 66.4546V62.3031H37.1873V66.4546H37.7748Z" fill="#E1BA48" stroke="#1F2122" stroke-width="0.432" stroke-linecap="round" stroke-linejoin="round"/>
<path d="M14.6237 37.2471H30.3399C31.6315 37.2482 32.8698 37.7621 33.7828 38.6758C34.6957 39.5896 35.2085 40.8284 35.2085 42.12V61.7544C35.2085 62.8578 34.7702 63.9159 33.99 64.6961C33.2098 65.4763 32.1517 65.9146 31.0483 65.9146H13.9109C12.8076 65.9146 11.7494 65.4763 10.9692 64.6961C10.189 63.9159 9.75073 62.8578 9.75073 61.7544V42.12C9.75073 40.8276 10.2641 39.5882 11.178 38.6743C12.0918 37.7605 13.3313 37.2471 14.6237 37.2471Z" fill="#2B2930" stroke="#1F2122" stroke-width="0.432" stroke-linecap="round" stroke-linejoin="round"/>
<path d="M12.2172 37.2471H27.9334C29.2257 37.2471 30.4652 37.7605 31.3791 38.6743C32.2929 39.5882 32.8063 40.8276 32.8063 42.12V61.7544C32.8063 62.8578 32.368 63.9159 31.5878 64.6961C30.8077 65.4763 29.7495 65.9146 28.6462 65.9146H11.5044C10.4011 65.9146 9.3429 65.4763 8.56272 64.6961C7.78254 63.9159 7.34424 62.8578 7.34424 61.7544V42.12C7.34424 40.8276 7.85764 39.5882 8.77149 38.6743C9.68535 37.7605 10.9248 37.2471 12.2172 37.2471Z" fill="#2B2930" stroke="#1F2122" stroke-width="0.432" stroke-linecap="round" stroke-linejoin="round"/>
<path d="M11.4746 66.9169H35.2087V73.9325H11.4746C11.0163 73.9325 10.5768 73.7505 10.2527 73.4264C9.92864 73.1024 9.74658 72.6628 9.74658 72.2045V68.6405C9.74773 68.183 9.93029 67.7446 10.2542 67.4215C10.5782 67.0983 11.017 66.9169 11.4746 66.9169Z" fill="#2B2930" stroke="#1F2122" stroke-width="0.432" stroke-linecap="round" stroke-linejoin="round"/>
<path d="M27.7913 66.9169H51.9314C52.2809 66.9169 52.616 67.0557 52.8631 67.3028C53.1102 67.5499 53.249 67.885 53.249 68.2345V72.6106C53.249 72.9601 53.1102 73.2952 52.8631 73.5423C52.616 73.7894 52.2809 73.9282 51.9314 73.9282H27.7913V66.9169Z" fill="#2B2930" stroke="#1F2122" stroke-width="0.432" stroke-linecap="round" stroke-linejoin="round"/>
<path d="M32.1545 97.7013V79.7473H37.0663V77.7429H41.4252V74.1357H19.5746V50.704H15.7644V73.9585C15.7648 74.7934 16.04 75.6049 16.5475 76.2678C17.055 76.9306 17.7666 77.408 18.5724 77.6262V77.7645H25.0567V79.7689H29.5452V97.792L16.9178 100.902V102.306H19.121L19.5228 101.503H30.15V102.306H31.7527V101.503H31.9687V100.302H32.0335L31.9687 101.511H42.5959L42.9977 102.315H45.2009V100.911L32.1545 97.7013Z" fill="#1F2122" stroke="#1F2122" stroke-width="0.432" stroke-linecap="round" stroke-linejoin="round"/>
<path d="M187.592 33.8993H185.203V48.8638H187.592V33.8993Z" fill="#E1BA48" stroke="#1F2122" stroke-width="0.432" stroke-linecap="round" stroke-linejoin="round"/>
<path d="M192.936 12.9352L177.575 14.5334L179.865 36.5417L195.226 34.9434L192.936 12.9352Z" fill="#1F2122" stroke="#1F2122" stroke-width="0.432" stroke-linecap="round" stroke-linejoin="round"/>
<path d="M193.243 50.1382H179.548C179.548 49.4622 179.817 48.8139 180.295 48.3359C180.773 47.8579 181.421 47.5894 182.097 47.5894H190.694C191.37 47.5894 192.018 47.8579 192.496 48.3359C192.974 48.8139 193.243 49.4622 193.243 50.1382Z" fill="#E1BA48" stroke="#1F2122" stroke-width="0.432" stroke-linecap="round" stroke-linejoin="round"/>
<path d="M177.838 41.5889H154.764V49.7364H177.838V41.5889Z" fill="#E1BA48" stroke="#1F2122" stroke-width="0.432" stroke-linecap="round" stroke-linejoin="round"/>
<path d="M174.609 38.9131L151.558 39.9115L151.682 42.773L174.733 41.7746L174.609 38.9131Z" fill="#E1BA48" stroke="#1F2122" stroke-width="0.432" stroke-linecap="round" stroke-linejoin="round"/>
<path d="M139.251 45.8398H120.494V49.6803H139.251V45.8398Z" fill="#E1BA48" stroke="#1F2122" stroke-width="0.432" stroke-linecap="round" stroke-linejoin="round"/>
<path d="M120.809 46.5785H124.101" stroke="#1F2122" stroke-width="0.432" stroke-linecap="round" stroke-linejoin="round"/>
<path d="M125.198 47.6282H125.648" stroke="#1F2122" stroke-width="0.432" stroke-linecap="round" stroke-linejoin="round"/>
<path d="M120.757 47.6282H124.451" stroke="#1F2122" stroke-width="0.432" stroke-linecap="round" stroke-linejoin="round"/>
<path d="M120.835 48.7125H122.356" stroke="#1F2122" stroke-width="0.432" stroke-linecap="round" stroke-linejoin="round"/>
<path d="M135.519 45.9736C135.2 47.1578 135.2 48.4053 135.519 49.5895H142.958C142.958 49.5895 142.163 47.2956 142.958 45.9736H135.519Z" fill="#E1BA48"/>
<mask id="mask0_2_182731" style="mask-type:luminance" maskUnits="userSpaceOnUse" x="135" y="45" width="8" height="5">
<path d="M135.519 45.9736C135.2 47.1578 135.2 48.4053 135.519 49.5895H142.958C142.958 49.5895 142.163 47.2956 142.958 45.9736H135.519Z" fill="white"/>
</mask>
<g mask="url(#mask0_2_182731)">
<path opacity="0.24" d="M135.519 45.9736C135.2 47.1578 135.2 48.4053 135.519 49.5895H142.958C142.958 49.5895 142.163 47.2956 142.958 45.9736H135.519Z" fill="#1F2122" stroke="#1F2122" stroke-width="0.432" stroke-linecap="round" stroke-linejoin="round"/>
</g>
<path d="M135.519 45.9736C135.2 47.1578 135.2 48.4053 135.519 49.5895H142.958C142.958 49.5895 142.163 47.2956 142.958 45.9736H135.519Z" stroke="#1F2122" stroke-width="0.432" stroke-linecap="round" stroke-linejoin="round"/>
<path d="M120.714 48.9761V46.3539C120.714 46.3221 120.72 46.2906 120.733 46.2613C120.745 46.2319 120.763 46.2053 120.785 46.1828C120.807 46.1603 120.834 46.1425 120.863 46.1304C120.893 46.1182 120.924 46.1119 120.956 46.1119H143.256C143.28 46.1125 143.304 46.1083 143.327 46.0994C143.349 46.0905 143.37 46.0773 143.387 46.0604C143.404 46.0435 143.418 46.0233 143.427 46.001C143.437 45.9787 143.442 45.9547 143.442 45.9305C143.442 45.8812 143.422 45.834 143.387 45.7992C143.352 45.7643 143.305 45.7448 143.256 45.7448H120.36C120.296 45.7448 120.234 45.7702 120.189 45.8156C120.143 45.861 120.118 45.9225 120.118 45.9867V49.3433C120.117 49.3951 120.127 49.4465 120.147 49.4944C120.166 49.5424 120.195 49.586 120.232 49.6226C120.268 49.6592 120.312 49.6881 120.36 49.7077C120.408 49.7272 120.459 49.737 120.511 49.7364H143.26C143.284 49.737 143.308 49.7327 143.331 49.7239C143.353 49.715 143.374 49.7017 143.391 49.6848C143.409 49.6679 143.422 49.6477 143.432 49.6254C143.441 49.6031 143.446 49.5792 143.446 49.555C143.446 49.5057 143.426 49.4585 143.392 49.4236C143.357 49.3888 143.309 49.3692 143.26 49.3692H121.107C121.003 49.3692 120.903 49.3278 120.829 49.2541C120.756 49.1804 120.714 49.0804 120.714 48.9761Z" fill="#1F2122" stroke="#1F2122" stroke-width="0.432" stroke-linecap="round" stroke-linejoin="round"/>
<path d="M120.732 45.2954C120.865 44.8634 121.349 43.0318 120.732 41.8654H142.332V45.2954H120.732Z" fill="#E1BA48" stroke="#1F2122" stroke-width="0.432" stroke-linecap="round" stroke-linejoin="round"/>
<path d="M133.665 42.63H130.374" stroke="#1F2122" stroke-width="0.432" stroke-linecap="round" stroke-linejoin="round"/>
<path d="M129.276 43.6797H128.827" stroke="#1F2122" stroke-width="0.432" stroke-linecap="round" stroke-linejoin="round"/>
<path d="M133.717 43.6797H130.024" stroke="#1F2122" stroke-width="0.432" stroke-linecap="round" stroke-linejoin="round"/>
<path d="M133.64 44.764H132.119" stroke="#1F2122" stroke-width="0.432" stroke-linecap="round" stroke-linejoin="round"/>
<path d="M133.743 44.9454V42.3275C133.745 42.2932 133.74 42.2588 133.728 42.2266C133.716 42.1944 133.697 42.165 133.673 42.1403C133.649 42.1156 133.62 42.096 133.589 42.0829C133.557 42.0698 133.523 42.0633 133.488 42.064H120.295C120.247 42.064 120.201 42.0449 120.167 42.0108C120.133 41.9768 120.114 41.9307 120.114 41.8825C120.113 41.8584 120.117 41.8343 120.126 41.8118C120.135 41.7893 120.148 41.7688 120.165 41.7514C120.182 41.7341 120.202 41.7204 120.225 41.711C120.247 41.7016 120.271 41.6968 120.295 41.6968H143.191C143.256 41.6979 143.317 41.7244 143.362 41.7704C143.408 41.8165 143.433 41.8785 143.433 41.943V45.2953C143.433 45.3996 143.392 45.4996 143.318 45.5733C143.244 45.647 143.144 45.6885 143.04 45.6885H120.295C120.271 45.6908 120.246 45.6883 120.223 45.6811C120.2 45.6738 120.179 45.662 120.16 45.6463C120.142 45.6306 120.126 45.6113 120.115 45.5896C120.104 45.5679 120.098 45.5442 120.096 45.52C120.096 45.4958 120.1 45.4717 120.109 45.4492C120.118 45.4267 120.131 45.4062 120.148 45.3889C120.165 45.3716 120.185 45.3578 120.207 45.3484C120.23 45.339 120.254 45.3342 120.278 45.3342H133.333C133.386 45.3365 133.438 45.3282 133.488 45.3098C133.537 45.2913 133.582 45.2631 133.621 45.2269C133.659 45.1906 133.689 45.147 133.71 45.0986C133.732 45.0503 133.743 44.9982 133.743 44.9454Z" fill="#E1BA48" stroke="#1F2122" stroke-width="0.432" stroke-linecap="round" stroke-linejoin="round"/>
<path d="M207.473 49.9611H124.036V95.4377H207.473V49.9611Z" fill="#E1BA48" stroke="#1F2122" stroke-width="0.432" stroke-linecap="round" stroke-linejoin="round"/>
<path d="M205.762 55.4344H168.264V70.4594H205.762V55.4344Z" fill="#E1BA48" stroke="#1F2122" stroke-width="0.432" stroke-linecap="round" stroke-linejoin="round"/>
<path d="M190.339 62.3162H183.682V63.3011H190.339V62.3162Z" fill="#1F2122"/>
<path d="M163.923 55.4344H126.425V70.4594H163.923V55.4344Z" fill="#E1BA48" stroke="#1F2122" stroke-width="0.432" stroke-linecap="round" stroke-linejoin="round"/>
<path d="M148.501 62.3162H141.843V63.3011H148.501V62.3162Z" fill="#1F2122"/>
<path d="M163.923 74.6671H126.425V89.6921H163.923V74.6671Z" fill="#E1BA48" stroke="#1F2122" stroke-width="0.432" stroke-linecap="round" stroke-linejoin="round"/>
<path d="M148.501 81.5488H141.843V82.5338H148.501V81.5488Z" fill="#1F2122"/>
<path d="M205.762 74.6714H168.264V89.6963H205.762V74.6714Z" fill="#2B2930" stroke="#1F2122" stroke-width="0.432" stroke-linecap="round" stroke-linejoin="round"/>
<path d="M203.987 74.6714H170.031V89.6963H203.987V74.6714Z" fill="#1F2122" stroke="#1F2122" stroke-width="0.432" stroke-linecap="round" stroke-linejoin="round"/>
<path d="M205.762 80.7108H168.264V95.7358H205.762V80.7108Z" fill="#E1BA48" stroke="#1F2122" stroke-width="0.432" stroke-linecap="round" stroke-linejoin="round"/>
<path d="M205.762 82.2529H168.264V97.2779H205.762V82.2529Z" fill="#E1BA48" stroke="#1F2122" stroke-width="0.432" stroke-linecap="round" stroke-linejoin="round"/>
<path d="M190.339 89.2729H183.682V90.2579H190.339V89.2729Z" fill="#1F2122"/>
<path d="M169.232 74.6714C168.253 74.9054 167.367 75.4275 166.688 76.1704C165.582 77.4016 166.442 81.0952 166.442 83.8039C166.442 86.5125 164.964 92.297 164.964 92.297C164.964 92.297 168.044 93.8954 168.537 93.8954H169.029L169.232 80.7107C169.608 80.6624 169.986 80.6378 170.364 80.6373C170.978 80.6373 173.09 80.6027 173.09 80.6027C173.09 80.6027 172.723 78.1403 171.362 76.5376C170.001 74.9349 169.232 74.6714 169.232 74.6714Z" fill="#E1BA48" stroke="#1F2122" stroke-width="0.432" stroke-linecap="round" stroke-linejoin="round"/>
<path d="M173.09 80.6028C173.09 80.6028 170.628 76.7839 169.275 76.4167C167.923 76.0495 167.547 78.6329 167.547 79.0087" stroke="#1F2122" stroke-width="0.432" stroke-linecap="round" stroke-linejoin="round"/>
<path d="M167.426 83.1861C167.426 83.1861 167.552 78.8661 169.154 78.6328C170.196 78.5204 171.243 78.7822 172.109 79.3715" stroke="#1F2122" stroke-width="0.432" stroke-linecap="round" stroke-linejoin="round"/>
<path d="M208.665 49.9611H122.84V53.0369H208.665V49.9611Z" fill="#1F2122" stroke="#1F2122" stroke-width="0.432" stroke-linecap="round" stroke-linejoin="round"/>
<path d="M195.658 80.2269C195.658 80.2269 194.565 88.0029 195.796 89.6488C197.027 91.2948 202.073 95.6536 204.121 94.5607C206.168 93.4677 205.486 91.6965 203.848 89.921C202.211 88.1455 200.436 86.37 200.302 85.1431C200.168 83.9162 199.87 80.3652 199.87 80.3652C199.87 80.3652 197.023 80.2269 195.658 80.2269Z" fill="#E1BA48" stroke="#1F2122" stroke-width="0.432" stroke-linecap="round" stroke-linejoin="round"/>
<path d="M195.796 89.6488C196.463 90.4616 197.208 91.2067 198.021 91.8736C197.876 90.8376 197.633 89.8178 197.295 88.828C197.137 88.3142 196.87 87.8409 196.51 87.4416C196.15 87.0424 195.707 86.7267 195.213 86.5168C195.238 87.8949 195.39 89.1088 195.796 89.6488Z" fill="#E1BA48" stroke="#1F2122" stroke-width="0.432" stroke-linecap="round" stroke-linejoin="round"/>
<path d="M204.12 94.5606C205.598 93.7744 205.65 92.6296 204.954 91.3898C203.843 92.2452 202.902 93.3017 202.181 94.5045C202.941 94.768 203.619 94.8285 204.12 94.5606Z" fill="#E1BA48" stroke="#1F2122" stroke-width="0.432" stroke-linecap="round" stroke-linejoin="round"/>
<path d="M183.372 80.227C183.198 81.0604 182.97 81.8816 182.689 82.6851C182.279 83.778 182.006 86.0979 182.689 87.1908C183.372 88.2838 186.236 88.8281 186.918 86.6422C187.601 84.4563 188.283 80.7713 188.283 80.7713C188.283 80.7713 185.964 79.2723 183.372 80.227Z" fill="#E1BA48" stroke="#1F2122" stroke-width="0.432" stroke-linecap="round" stroke-linejoin="round"/>
<path d="M186.918 86.6421C186.97 86.478 187.022 86.3052 187.074 86.1237C185.661 85.3936 183.505 85.3288 182.274 85.3634C182.258 85.9996 182.407 86.6291 182.706 87.1908C183.371 88.288 186.236 88.828 186.918 86.6421Z" fill="#E1BA48" stroke="#1F2122" stroke-width="0.432" stroke-linecap="round" stroke-linejoin="round"/>
<path d="M56.8124 102.639L58.264 108.065H55.875L56.8124 102.639Z" fill="#E1BA48" stroke="#1F2122" stroke-width="0.432" stroke-linecap="round" stroke-linejoin="round"/>
<path d="M54.186 106.458H23.0475V131.626H54.186V106.458Z" fill="#E1BA48" stroke="#1F2122" stroke-width="0.432" stroke-linecap="round" stroke-linejoin="round"/>
<path d="M56.8125 102.639L54.1903 106.458V131.626L56.8125 127.807V102.639Z" fill="#E1BA48" stroke="#1F2122" stroke-width="0.432" stroke-linecap="round" stroke-linejoin="round"/>
<path d="M25.674 102.639L23.0475 106.458H54.1904L56.8126 102.639H25.674Z" fill="#E1BA48" stroke="#1F2122" stroke-width="0.432" stroke-linecap="round" stroke-linejoin="round"/>
<path d="M25.6742 106.393V102.639L23.0908 106.393H25.6742Z" fill="#E1BA48" stroke="#1F2122" stroke-width="0.432" stroke-linecap="round" stroke-linejoin="round"/>
<path d="M23.0475 106.458L21.7256 113.081H53.2486L54.1904 106.458H23.0475Z" fill="#E1BA48" stroke="#1F2122" stroke-width="0.432" stroke-linecap="round" stroke-linejoin="round"/>
<path d="M27.7346 131.376L15.1116 134.054L24.6717 139.217L37.6793 136.348L27.7346 131.376Z" fill="#E1BA48" stroke="#1F2122" stroke-width="0.432" stroke-linecap="round" stroke-linejoin="round"/>
<path d="M39.9644 131.091L27.337 133.769L36.9015 138.936L49.909 136.063L39.9644 131.091Z" fill="#E1BA48" stroke="#1F2122" stroke-width="0.432" stroke-linecap="round" stroke-linejoin="round"/>
<path d="M29.441 136.78L16.818 139.459L26.3782 144.621L39.3857 141.752L29.441 136.78Z" fill="#E1BA48" stroke="#1F2122" stroke-width="0.432" stroke-linecap="round" stroke-linejoin="round"/>
<path d="M159.265 91.4544C159.265 91.4544 158.514 62.3333 148.219 59.0544C137.717 55.7237 126.498 56.0045 115.625 56.497C105.369 56.9635 95.0313 56.6827 84.8015 57.361C73.5393 58.1083 69.3662 63.2793 66.8822 73.6905C65.523 79.5144 64.7674 85.4627 64.6271 91.4414L62.1172 98.9712H161.775L159.265 91.4544Z" fill="#2B2930" stroke="#1F2122" stroke-width="0.432" stroke-linecap="round" stroke-linejoin="round"/>
<path d="M73.1635 94.9666V88.4434C73.1635 88.4434 72.913 83.6914 67.392 83.1687C61.8711 82.646 46.8072 94.4655 47.0578 96.9927C47.3083 99.5199 50.0818 117.327 51.8098 118.079C53.5378 118.83 58.0867 122.347 62.1 120.338C66.1133 118.329 73.1635 94.9666 73.1635 94.9666Z" fill="#2B2930" stroke="#1F2122" stroke-width="0.432" stroke-linecap="round" stroke-linejoin="round"/>
<path d="M148.72 94.9666V88.4434C148.72 88.4434 148.971 83.6914 154.496 83.1687C160.021 82.646 175.081 94.4655 174.83 96.9927C174.58 99.5199 171.806 117.327 170.057 118.079C168.307 118.83 163.784 122.347 159.766 120.338C155.749 118.329 148.72 94.9666 148.72 94.9666Z" fill="#2B2930" stroke="#1F2122" stroke-width="0.432" stroke-linecap="round" stroke-linejoin="round"/>
<path d="M73.1634 94.9666C72.7534 95.3928 72.3115 95.7871 71.8415 96.146C68.4676 98.9281 59.8578 105.512 59.8578 105.512H162.527L148.703 94.215L73.1634 94.9666Z" fill="#2B2930" stroke="#1F2122" stroke-width="0.432" stroke-linecap="round" stroke-linejoin="round"/>
<path d="M59.8578 105.512V115.888H162.458L162.527 105.512H59.8578Z" fill="#2B2930" stroke="#1F2122" stroke-width="0.432" stroke-linecap="round" stroke-linejoin="round"/>
<path d="M56.5921 126.097L53.378 136.162C53.3158 136.361 53.3011 136.572 53.3352 136.777C53.3693 136.983 53.4513 137.178 53.5744 137.346C53.6976 137.514 53.8585 137.651 54.0443 137.745C54.23 137.84 54.4354 137.89 54.6438 137.89C54.8578 137.89 55.0688 137.839 55.2584 137.739C55.448 137.64 55.6107 137.496 55.7324 137.32L63.3745 126.347L56.5921 126.097Z" fill="#1F2122" stroke="#1F2122" stroke-width="0.432" stroke-linecap="round" stroke-linejoin="round"/>
<path d="M165.78 126.097L168.99 136.162C169.053 136.361 169.068 136.571 169.035 136.777C169.001 136.983 168.92 137.178 168.797 137.346C168.674 137.514 168.513 137.651 168.328 137.746C168.142 137.84 167.937 137.89 167.728 137.89C167.514 137.89 167.302 137.839 167.112 137.739C166.921 137.64 166.758 137.496 166.635 137.32L159.002 126.347L165.78 126.097Z" fill="#1F2122" stroke="#1F2122" stroke-width="0.432" stroke-linecap="round" stroke-linejoin="round"/>
<path d="M172.277 94.0292C170.614 93.2128 168.735 93.0875 166.475 94.215C161.957 96.4744 162.458 105.512 162.458 105.512V111.879C162.457 112.853 162.069 113.786 161.381 114.475C160.693 115.163 159.759 115.55 158.786 115.551H63.5341C62.5598 115.551 61.6254 115.165 60.9361 114.476C60.2468 113.788 59.8589 112.854 59.8578 111.879V105.512C59.8578 105.512 60.3632 96.4744 55.8445 94.215C53.5852 93.0875 51.7016 93.2128 50.0384 94.0292C48.6442 94.746 47.5094 95.8814 46.7935 97.276C46.0776 98.6707 45.8165 100.255 46.0468 101.805C46.7509 107.028 48.0944 116.156 49.317 119.824C51.0752 125.094 51.0752 126.101 54.838 127.354C58.1039 128.442 100.081 127.643 111.158 127.414C122.234 127.643 164.212 128.442 167.478 127.354C171.245 126.101 171.245 125.094 172.999 119.824C174.221 116.156 175.565 107.024 176.273 101.805C176.504 100.254 176.242 98.6696 175.525 97.2747C174.809 95.8799 173.673 94.7448 172.277 94.0292Z" fill="#2B2930" stroke="#1F2122" stroke-width="0.432" stroke-linecap="round" stroke-linejoin="round"/>
<path opacity="0.3" d="M76.9604 98.4443C76.9604 98.4443 80.1227 97.7747 81.315 97.9086C82.2208 97.9828 83.0853 98.3191 83.8033 98.8763C84.5982 99.4033 92.2187 98.8763 93.0135 100.06C93.8084 101.244 87.9548 101.248 85.8337 101.248C83.7126 101.248 85.8337 101.645 87.8209 101.779C89.8081 101.913 90.3395 102.838 90.3395 103.766C90.3395 104.695 82.9436 105.067 79.4876 104.142C76.0316 103.218 79.6172 102.021 80.546 101.624C81.4748 101.226 79.0902 100.431 76.7055 100.431C74.3209 100.431 74.8523 99.507 78.0318 98.8417" fill="#1F2122"/>
<path d="M79.0214 97.1181C79.5225 99.4206 78.7751 101.542 77.3495 101.87C75.9239 102.198 74.3601 100.574 73.8547 98.2628C73.3492 95.9516 74.1009 93.8392 75.5265 93.5108C76.9521 93.1825 78.5159 94.8112 79.0214 97.1181Z" fill="#E1BA48" stroke="#1F2122" stroke-width="0.432" stroke-linecap="round" stroke-linejoin="round"/>
<path d="M76.1336 102.114C77.5601 101.802 78.3088 99.6825 77.8059 97.3795C77.3029 95.0766 75.7387 93.4622 74.3122 93.7738C72.8857 94.0853 72.137 96.2048 72.6399 98.5077C73.1429 100.811 74.7071 102.425 76.1336 102.114Z" fill="#E1BA48" stroke="#1F2122" stroke-width="0.432" stroke-linecap="round" stroke-linejoin="round"/>
<path d="M74.3471 94.1673L66.6575 96.228L68.1522 103.08L76.0016 101.745C77.2976 101.46 77.9759 99.5371 77.5223 97.4462C77.0687 95.3554 75.6431 93.9038 74.3471 94.1673Z" fill="#E1BA48" stroke="#1F2122" stroke-width="0.432" stroke-linecap="round" stroke-linejoin="round"/>
<path d="M69.5259 99.1915C69.9579 101.084 69.3272 102.825 68.1521 103.08C66.9771 103.334 65.6984 102.008 65.2837 100.116C64.8689 98.2239 65.4867 96.4829 66.6574 96.228C67.8281 95.9731 69.1198 97.2994 69.5259 99.1915Z" fill="#E1BA48" stroke="#1F2122" stroke-width="0.432" stroke-linecap="round" stroke-linejoin="round"/>
<path d="M89.2727 99.7273L87.886 100.263L97.3641 104.626C99.0093 104.353 100.617 103.889 102.155 103.244C105.136 102.073 108.864 100.384 108.864 100.384C108.864 100.384 112.484 102.41 114.186 102.41C115.888 102.41 118.765 102.302 118.765 102.302C118.765 102.302 115.344 100.583 114.398 99.9519C113.452 99.3212 111.417 97.6062 107.693 97.7142C103.969 97.8222 104.073 97.3945 101.088 98.0338C98.1028 98.6732 89.2727 99.7273 89.2727 99.7273Z" fill="#E1BA48" stroke="#1F2122" stroke-width="0.432" stroke-linecap="round" stroke-linejoin="round"/>
<path d="M101.731 95.6622C101.731 95.6622 100.867 96.3189 97.8089 97.3902C94.7503 98.4616 87.7908 99.1182 87.7908 99.1182L96.5042 103.477C96.5042 103.477 98.0292 104.773 102.384 102.181C106.738 99.5891 108.268 98.9152 108.268 98.9152C109.645 99.7207 111.105 100.377 112.622 100.872C114.804 101.529 118.506 101.529 118.506 101.529C118.506 101.529 114.367 99.8008 112.406 98.2585C110.445 96.7163 109.814 96.3016 109.814 96.3016C109.814 96.3016 104.997 98.2758 101.731 95.6622Z" fill="#E1BA48" stroke="#1F2122" stroke-width="0.432" stroke-linecap="round" stroke-linejoin="round"/>
<path d="M101.732 95.6622C103.481 97.4557 105.783 98.6077 108.268 98.9325" stroke="#1F2122" stroke-width="0.432" stroke-linecap="round" stroke-linejoin="round"/>
<path opacity="0.3" d="M187.92 125.522C187.92 125.522 191.082 124.852 192.274 124.986C193.18 125.062 194.044 125.398 194.763 125.954C195.558 126.481 203.178 125.954 203.973 127.138C204.768 128.321 198.914 128.304 196.793 128.304C194.672 128.304 196.793 128.702 198.78 128.835C200.768 128.969 201.295 129.894 201.295 130.823C201.295 131.751 193.882 132.145 190.438 131.22C186.995 130.296 190.568 129.099 191.497 128.702C192.426 128.304 190.041 127.509 187.656 127.509C185.272 127.509 185.803 126.585 188.978 125.919" fill="#1F2122"/>
<path d="M181.62 124.525C182.408 122.303 181.93 120.107 180.554 119.619C179.178 119.131 177.424 120.537 176.636 122.759C175.849 124.981 176.327 127.178 177.703 127.665C179.079 128.153 180.833 126.747 181.62 124.525Z" fill="#E1BA48" stroke="#1F2122" stroke-width="0.432" stroke-linecap="round" stroke-linejoin="round"/>
<path d="M182.793 124.943C183.58 122.721 183.102 120.524 181.726 120.037C180.35 119.549 178.596 120.955 177.809 123.177C177.021 125.399 177.499 127.595 178.875 128.083C180.252 128.571 182.005 127.165 182.793 124.943Z" fill="#E1BA48" stroke="#1F2122" stroke-width="0.432" stroke-linecap="round" stroke-linejoin="round"/>
<path d="M179.042 127.717L186.663 130.028L189.004 123.414L181.634 120.412C180.381 119.98 178.792 121.245 178.075 123.263C177.357 125.28 177.794 127.276 179.042 127.717Z" fill="#E1BA48" stroke="#1F2122" stroke-width="0.432" stroke-linecap="round" stroke-linejoin="round"/>
<path d="M185.786 125.993C186.434 124.17 187.877 123.012 189.004 123.401C190.132 123.79 190.529 125.604 189.868 127.431C189.207 129.259 187.782 130.412 186.65 130.023C185.518 129.635 185.142 127.82 185.786 125.993Z" fill="#E1BA48" stroke="#1F2122" stroke-width="0.432" stroke-linecap="round" stroke-linejoin="round"/>
<path d="M80.9695 58.0954C80.9695 58.0954 80.8312 65.6079 80.5375 67.2754C80.2437 68.9429 80.1055 71.5954 80.1055 71.5954C80.1055 71.5954 84.6933 72.5674 86.0844 72.5674C87.4754 72.5674 88.8664 72.4292 88.8664 72.4292V62.6876C88.9143 61.2396 89.0586 59.7964 89.2984 58.3676L89.7304 56.8383C89.7304 56.8383 86.2528 56.1428 83.609 56.4063C80.9651 56.6698 80.9695 58.0954 80.9695 58.0954Z" fill="#E1BA48" stroke="#1F2122" stroke-width="0.432" stroke-linecap="round" stroke-linejoin="round"/>
<path d="M91.3981 57.1234C91.3981 57.1234 91.5363 62.2685 91.5363 66.9946C91.5363 71.7207 91.2598 77.0084 91.2598 77.7039C91.2598 78.3994 92.3701 78.8184 95.9859 78.8184C99.6018 78.8184 99.8739 77.8421 99.8739 77.8421V56.8469C99.8739 56.8469 94.5906 55.4559 90.8322 57.2789" fill="#E1BA48"/>
<path d="M91.3981 57.1234C91.3981 57.1234 91.5363 62.2685 91.5363 66.9946C91.5363 71.7207 91.2598 77.0084 91.2598 77.7039C91.2598 78.3994 92.3701 78.8184 95.9859 78.8184C99.6018 78.8184 99.8739 77.8421 99.8739 77.8421V56.8469C99.8739 56.8469 94.5906 55.4559 90.8322 57.2789" stroke="#1F2122" stroke-width="0.432" stroke-linecap="round" stroke-linejoin="round"/>
<path d="M91.26 75.6173C91.26 75.6173 96.5434 77.1466 100.021 75.1853" stroke="#1F2122" stroke-width="0.432" stroke-linecap="round" stroke-linejoin="round"/>
<path d="M80.274 69.5002C80.274 69.5002 83.4708 70.0575 85.5574 70.1958C86.7108 70.2862 87.8709 70.2398 89.0134 70.0575" stroke="#1F2122" stroke-width="0.432" stroke-linecap="round" stroke-linejoin="round"/>
<path d="M192.391 141.385C192.391 144.841 185.246 147.671 176.433 147.671C167.62 147.671 160.479 144.854 160.479 141.385C160.479 137.916 167.62 130.879 176.433 130.879C185.246 130.879 192.391 137.912 192.391 141.385Z" fill="#E1BA48" stroke="#1F2122" stroke-width="0.432" stroke-linecap="round" stroke-linejoin="round"/>
<path d="M176.433 138.694C181.338 138.694 185.315 137.127 185.315 135.195C185.315 133.262 181.338 131.695 176.433 131.695C171.528 131.695 167.551 133.262 167.551 135.195C167.551 137.127 171.528 138.694 176.433 138.694Z" fill="#E1BA48" stroke="#1F2122" stroke-width="0.432" stroke-linecap="round" stroke-linejoin="round"/>
<path d="M176.433 138.002C181.338 138.002 185.315 136.436 185.315 134.503C185.315 132.571 181.338 131.004 176.433 131.004C171.528 131.004 167.551 132.571 167.551 134.503C167.551 136.436 171.528 138.002 176.433 138.002Z" fill="#E1BA48" stroke="#1F2122" stroke-width="0.432" stroke-linecap="round" stroke-linejoin="round"/>
<path d="M157.77 144.729C157.777 144.81 157.767 144.891 157.741 144.969C157.715 145.046 157.673 145.116 157.618 145.176C157.563 145.236 157.496 145.284 157.421 145.317C157.347 145.35 157.266 145.367 157.185 145.367C157.104 145.367 157.023 145.35 156.949 145.317C156.874 145.284 156.807 145.236 156.752 145.176C156.697 145.116 156.655 145.046 156.629 144.969C156.603 144.891 156.593 144.81 156.6 144.729C156.612 144.582 156.679 144.446 156.788 144.346C156.896 144.247 157.038 144.192 157.185 144.192C157.332 144.192 157.474 144.247 157.582 144.346C157.691 144.446 157.758 144.582 157.77 144.729Z" fill="#E1BA48" stroke="#1F2122" stroke-width="0.432" stroke-linecap="round" stroke-linejoin="round"/>
<path d="M155.745 143.692C155.486 143.692 155.237 143.795 155.054 143.978C154.871 144.161 154.768 144.409 154.768 144.668C154.768 144.855 154.82 145.037 154.92 145.195C154.78 145.228 154.656 145.307 154.566 145.419C154.477 145.531 154.428 145.67 154.427 145.813C154.416 145.904 154.425 145.997 154.453 146.085C154.481 146.172 154.527 146.253 154.588 146.322C154.649 146.391 154.724 146.446 154.808 146.483C154.892 146.521 154.983 146.54 155.075 146.54C155.167 146.54 155.258 146.521 155.342 146.483C155.426 146.446 155.501 146.391 155.562 146.322C155.623 146.253 155.669 146.172 155.697 146.085C155.725 145.997 155.734 145.904 155.723 145.813C155.718 145.754 155.707 145.696 155.688 145.64H155.736C155.995 145.64 156.243 145.537 156.426 145.354C156.609 145.171 156.712 144.923 156.712 144.664C156.712 144.405 156.609 144.157 156.426 143.974C156.243 143.79 155.995 143.688 155.736 143.688L155.745 143.692Z" fill="#E1BA48" stroke="#1F2122" stroke-width="0.432" stroke-linecap="round" stroke-linejoin="round"/>
<path d="M156.63 146.746C156.971 146.746 157.248 146.47 157.248 146.128C157.248 145.787 156.971 145.511 156.63 145.511C156.289 145.511 156.012 145.787 156.012 146.128C156.012 146.47 156.289 146.746 156.63 146.746Z" fill="#E1BA48" stroke="#1F2122" stroke-width="0.432" stroke-linecap="round" stroke-linejoin="round"/>
<path d="M134.188 148.383C134.188 148.5 134.153 148.614 134.089 148.71C134.024 148.807 133.932 148.882 133.824 148.927C133.717 148.971 133.598 148.982 133.484 148.959C133.37 148.936 133.265 148.88 133.183 148.797C133.101 148.715 133.046 148.61 133.024 148.495C133.001 148.381 133.014 148.263 133.059 148.156C133.104 148.048 133.18 147.957 133.277 147.893C133.374 147.829 133.488 147.795 133.605 147.796C133.682 147.796 133.758 147.811 133.829 147.841C133.9 147.87 133.964 147.914 134.019 147.968C134.073 148.023 134.116 148.088 134.145 148.159C134.174 148.23 134.188 148.306 134.188 148.383Z" fill="#E1BA48" stroke="#1F2122" stroke-width="0.432" stroke-linecap="round" stroke-linejoin="round"/>
<path d="M132.162 147.347C131.903 147.347 131.654 147.449 131.471 147.633C131.288 147.816 131.185 148.064 131.185 148.323C131.184 148.509 131.239 148.691 131.341 148.846C131.225 148.876 131.119 148.939 131.037 149.026C130.954 149.114 130.898 149.223 130.874 149.341C130.85 149.459 130.86 149.581 130.902 149.693C130.944 149.806 131.017 149.905 131.112 149.978C131.208 150.051 131.322 150.097 131.441 150.109C131.561 150.12 131.681 150.099 131.789 150.046C131.897 149.992 131.988 149.91 132.052 149.808C132.115 149.706 132.149 149.588 132.149 149.468C132.146 149.409 132.135 149.35 132.114 149.295H132.162C132.421 149.295 132.669 149.192 132.852 149.009C133.035 148.826 133.138 148.578 133.138 148.319C133.138 148.06 133.035 147.811 132.852 147.628C132.669 147.445 132.421 147.342 132.162 147.342V147.347Z" fill="#E1BA48" stroke="#1F2122" stroke-width="0.432" stroke-linecap="round" stroke-linejoin="round"/>
<path d="M133.669 149.783C133.67 149.907 133.634 150.027 133.566 150.13C133.498 150.233 133.401 150.314 133.287 150.361C133.173 150.409 133.048 150.422 132.927 150.398C132.806 150.374 132.695 150.315 132.607 150.227C132.52 150.14 132.461 150.029 132.437 149.908C132.413 149.787 132.426 149.661 132.473 149.547C132.521 149.434 132.601 149.336 132.704 149.268C132.807 149.2 132.928 149.165 133.052 149.165C133.215 149.165 133.373 149.23 133.488 149.346C133.604 149.462 133.669 149.619 133.669 149.783Z" fill="#E1BA48" stroke="#1F2122" stroke-width="0.432" stroke-linecap="round" stroke-linejoin="round"/>
<path d="M145.104 148.085C145.024 148.118 144.935 148.122 144.852 148.096C144.77 148.069 144.699 148.014 144.653 147.941C144.607 147.867 144.589 147.78 144.601 147.694C144.613 147.608 144.655 147.53 144.72 147.472C144.804 147.424 144.904 147.412 144.998 147.437C145.091 147.462 145.171 147.523 145.221 147.606C145.266 147.686 145.278 147.78 145.257 147.868C145.235 147.957 145.181 148.035 145.104 148.085Z" fill="#E1BA48" stroke="#1F2122" stroke-width="0.432" stroke-linecap="round" stroke-linejoin="round"/>
<path d="M145.031 146.66C144.976 146.564 144.897 146.486 144.801 146.432C144.706 146.378 144.597 146.351 144.488 146.353C144.378 146.356 144.271 146.388 144.178 146.447C144.085 146.505 144.009 146.588 143.96 146.686C143.891 146.615 143.798 146.572 143.7 146.565C143.602 146.557 143.504 146.586 143.426 146.645C143.347 146.704 143.292 146.79 143.272 146.887C143.252 146.983 143.267 147.084 143.316 147.169C143.374 147.26 143.464 147.326 143.567 147.354C143.671 147.382 143.782 147.37 143.877 147.321C143.907 147.299 143.934 147.274 143.96 147.247V147.273C144.041 147.414 144.175 147.517 144.332 147.559C144.489 147.601 144.657 147.579 144.798 147.498C144.939 147.416 145.041 147.282 145.084 147.125C145.126 146.968 145.104 146.801 145.022 146.66H145.031Z" fill="#E1BA48" stroke="#1F2122" stroke-width="0.432" stroke-linecap="round" stroke-linejoin="round"/>
<path d="M144.18 148.245C144.136 148.271 144.087 148.287 144.037 148.294C143.987 148.3 143.936 148.297 143.887 148.284C143.838 148.27 143.792 148.248 143.752 148.217C143.712 148.185 143.678 148.147 143.653 148.103C143.614 148.036 143.596 147.959 143.601 147.882C143.605 147.805 143.633 147.732 143.68 147.67C143.727 147.609 143.791 147.563 143.864 147.538C143.937 147.514 144.016 147.511 144.09 147.531C144.165 147.551 144.231 147.593 144.282 147.651C144.333 147.71 144.365 147.782 144.374 147.858C144.384 147.935 144.371 148.012 144.336 148.081C144.301 148.15 144.247 148.207 144.18 148.245Z" fill="#E1BA48" stroke="#1F2122" stroke-width="0.432" stroke-linecap="round" stroke-linejoin="round"/>
<path d="M159.179 149.904C159.116 149.941 159.044 149.958 158.971 149.953C158.899 149.948 158.829 149.922 158.771 149.878C158.714 149.834 158.67 149.774 158.647 149.705C158.624 149.636 158.621 149.562 158.64 149.492C158.659 149.421 158.698 149.358 158.752 149.31C158.807 149.263 158.875 149.232 158.947 149.222C159.019 149.213 159.092 149.225 159.157 149.257C159.222 149.289 159.276 149.34 159.313 149.403C159.337 149.445 159.353 149.491 159.36 149.538C159.367 149.586 159.364 149.635 159.351 149.682C159.339 149.728 159.317 149.772 159.287 149.81C159.258 149.848 159.221 149.88 159.179 149.904Z" fill="#E1BA48" stroke="#1F2122" stroke-width="0.432" stroke-linecap="round" stroke-linejoin="round"/>
<path d="M159.105 148.478C159.052 148.382 158.973 148.302 158.877 148.247C158.781 148.192 158.672 148.164 158.562 148.167C158.452 148.17 158.344 148.203 158.251 148.262C158.158 148.322 158.083 148.405 158.034 148.504C157.981 148.45 157.913 148.412 157.839 148.395C157.765 148.377 157.687 148.381 157.615 148.405C157.543 148.429 157.48 148.474 157.431 148.532C157.383 148.591 157.352 148.662 157.343 148.738C157.333 148.813 157.344 148.89 157.376 148.959C157.408 149.028 157.458 149.087 157.522 149.129C157.585 149.171 157.659 149.194 157.735 149.196C157.811 149.198 157.887 149.178 157.952 149.139C157.981 149.117 158.009 149.093 158.034 149.066V149.092C158.071 149.168 158.123 149.236 158.187 149.291C158.251 149.346 158.326 149.387 158.406 149.412C158.487 149.437 158.572 149.445 158.656 149.435C158.74 149.425 158.821 149.399 158.894 149.356C158.967 149.314 159.031 149.257 159.081 149.189C159.131 149.121 159.166 149.043 159.185 148.961C159.204 148.878 159.205 148.793 159.189 148.71C159.173 148.627 159.14 148.548 159.092 148.478H159.105Z" fill="#E1BA48" stroke="#1F2122" stroke-width="0.432" stroke-linecap="round" stroke-linejoin="round"/>
<path d="M158.254 150.064C158.211 150.09 158.163 150.106 158.112 150.113C158.062 150.12 158.011 150.117 157.962 150.104C157.913 150.091 157.867 150.069 157.827 150.038C157.787 150.008 157.753 149.969 157.727 149.926C157.702 149.881 157.685 149.833 157.679 149.782C157.672 149.731 157.675 149.68 157.689 149.63C157.702 149.581 157.725 149.535 157.756 149.494C157.787 149.454 157.826 149.42 157.87 149.394C157.959 149.343 158.064 149.33 158.163 149.356C158.262 149.383 158.346 149.448 158.397 149.537C158.448 149.626 158.462 149.731 158.435 149.83C158.408 149.929 158.343 150.013 158.254 150.064Z" fill="#E1BA48" stroke="#1F2122" stroke-width="0.432" stroke-linecap="round" stroke-linejoin="round"/>
<path d="M175.902 134.512C175.903 134.628 175.869 134.742 175.805 134.839C175.741 134.937 175.649 135.013 175.542 135.058C175.435 135.103 175.316 135.115 175.202 135.093C175.088 135.071 174.983 135.015 174.9 134.933C174.818 134.851 174.761 134.747 174.738 134.632C174.715 134.518 174.727 134.4 174.771 134.292C174.815 134.185 174.891 134.093 174.987 134.028C175.084 133.963 175.198 133.929 175.314 133.929C175.469 133.929 175.618 133.99 175.728 134.099C175.838 134.209 175.901 134.357 175.902 134.512Z" fill="#E1BA48" stroke="#1F2122" stroke-width="0.432" stroke-linecap="round" stroke-linejoin="round"/>
<path d="M173.876 133.458C173.617 133.458 173.368 133.561 173.185 133.744C173.002 133.927 172.899 134.175 172.899 134.434C172.898 134.621 172.952 134.805 173.055 134.961C172.915 134.994 172.791 135.073 172.702 135.185C172.612 135.297 172.563 135.436 172.562 135.579C172.552 135.67 172.561 135.763 172.588 135.851C172.616 135.938 172.662 136.019 172.723 136.088C172.784 136.157 172.859 136.211 172.943 136.249C173.027 136.287 173.118 136.306 173.21 136.306C173.302 136.306 173.393 136.287 173.477 136.249C173.561 136.211 173.636 136.157 173.697 136.088C173.759 136.019 173.805 135.938 173.832 135.851C173.86 135.763 173.869 135.67 173.858 135.579C173.856 135.52 173.844 135.462 173.824 135.406H173.871C174.13 135.406 174.379 135.303 174.562 135.12C174.745 134.937 174.848 134.689 174.848 134.43C174.848 134.171 174.745 133.923 174.562 133.739C174.379 133.556 174.13 133.453 173.871 133.453L173.876 133.458Z" fill="#E1BA48" stroke="#1F2122" stroke-width="0.432" stroke-linecap="round" stroke-linejoin="round"/>
<path d="M174.761 136.512C175.102 136.512 175.379 136.236 175.379 135.894C175.379 135.553 175.102 135.277 174.761 135.277C174.42 135.277 174.143 135.553 174.143 135.894C174.143 136.236 174.42 136.512 174.761 136.512Z" fill="#E1BA48" stroke="#1F2122" stroke-width="0.432" stroke-linecap="round" stroke-linejoin="round"/>
<path d="M169.244 147.334C169.245 147.45 169.211 147.564 169.147 147.662C169.083 147.759 168.991 147.835 168.884 147.88C168.776 147.925 168.658 147.937 168.543 147.914C168.429 147.892 168.324 147.836 168.241 147.753C168.159 147.671 168.103 147.566 168.08 147.452C168.058 147.337 168.07 147.219 168.115 147.111C168.16 147.004 168.236 146.912 168.333 146.848C168.43 146.783 168.545 146.75 168.661 146.751C168.738 146.751 168.814 146.766 168.884 146.795C168.955 146.824 169.019 146.867 169.074 146.921C169.128 146.975 169.171 147.04 169.2 147.111C169.229 147.181 169.244 147.257 169.244 147.334Z" fill="#E1BA48" stroke="#1F2122" stroke-width="0.432" stroke-linecap="round" stroke-linejoin="round"/>
<path d="M167.218 146.297C166.959 146.297 166.711 146.4 166.528 146.583C166.345 146.766 166.242 147.014 166.242 147.273C166.241 147.46 166.295 147.644 166.398 147.8C166.258 147.833 166.134 147.912 166.044 148.024C165.955 148.136 165.906 148.275 165.905 148.418C165.895 148.509 165.903 148.602 165.931 148.69C165.959 148.777 166.005 148.858 166.066 148.927C166.127 148.996 166.202 149.051 166.286 149.088C166.37 149.126 166.461 149.145 166.553 149.145C166.645 149.145 166.736 149.126 166.82 149.088C166.904 149.051 166.979 148.996 167.04 148.927C167.101 148.858 167.147 148.777 167.175 148.69C167.203 148.602 167.212 148.509 167.201 148.418C167.198 148.359 167.187 148.301 167.167 148.245H167.214C167.473 148.245 167.721 148.142 167.904 147.959C168.087 147.776 168.19 147.528 168.19 147.269C168.19 147.01 168.087 146.762 167.904 146.579C167.721 146.395 167.473 146.293 167.214 146.293L167.218 146.297Z" fill="#E1BA48" stroke="#1F2122" stroke-width="0.432" stroke-linecap="round" stroke-linejoin="round"/>
<path d="M168.108 149.351C168.45 149.351 168.726 149.074 168.726 148.733C168.726 148.392 168.45 148.115 168.108 148.115C167.767 148.115 167.491 148.392 167.491 148.733C167.491 149.074 167.767 149.351 168.108 149.351Z" fill="#E1BA48" stroke="#1F2122" stroke-width="0.432" stroke-linecap="round" stroke-linejoin="round"/>
<path d="M151.679 147.658C151.679 147.774 151.645 147.887 151.58 147.984C151.516 148.081 151.424 148.156 151.317 148.2C151.209 148.245 151.091 148.256 150.977 148.234C150.863 148.211 150.759 148.155 150.676 148.073C150.594 147.991 150.538 147.886 150.516 147.772C150.493 147.658 150.505 147.54 150.549 147.433C150.593 147.325 150.669 147.234 150.765 147.169C150.862 147.105 150.976 147.07 151.092 147.07C151.169 147.07 151.246 147.084 151.317 147.114C151.389 147.143 151.454 147.186 151.509 147.241C151.563 147.296 151.606 147.361 151.636 147.432C151.665 147.504 151.68 147.58 151.679 147.658Z" fill="#E1BA48" stroke="#1F2122" stroke-width="0.432" stroke-linecap="round" stroke-linejoin="round"/>
<path d="M149.649 146.608C149.474 146.607 149.302 146.654 149.151 146.743C149 146.831 148.876 146.959 148.792 147.113C148.708 147.267 148.667 147.44 148.674 147.615C148.68 147.79 148.733 147.96 148.828 148.107C148.688 148.141 148.564 148.22 148.475 148.333C148.385 148.446 148.336 148.585 148.336 148.729C148.354 148.888 148.43 149.035 148.55 149.141C148.669 149.248 148.824 149.306 148.984 149.306C149.144 149.306 149.298 149.248 149.418 149.141C149.537 149.035 149.613 148.888 149.632 148.729C149.629 148.67 149.617 148.612 149.597 148.556H149.645C149.904 148.556 150.152 148.453 150.335 148.27C150.518 148.087 150.621 147.839 150.621 147.58C150.621 147.321 150.518 147.073 150.335 146.889C150.152 146.706 149.904 146.604 149.645 146.604L149.649 146.608Z" fill="#E1BA48" stroke="#1F2122" stroke-width="0.432" stroke-linecap="round" stroke-linejoin="round"/>
<path d="M150.539 149.675C150.88 149.675 151.157 149.399 151.157 149.057C151.157 148.716 150.88 148.44 150.539 148.44C150.198 148.44 149.921 148.716 149.921 149.057C149.921 149.399 150.198 149.675 150.539 149.675Z" fill="#E1BA48" stroke="#1F2122" stroke-width="0.432" stroke-linecap="round" stroke-linejoin="round"/>
<path d="M150.379 145.783C150.294 145.863 150.188 145.915 150.073 145.935C149.959 145.954 149.841 145.939 149.735 145.891C149.629 145.843 149.54 145.765 149.478 145.666C149.416 145.568 149.385 145.453 149.389 145.337C149.393 145.221 149.431 145.108 149.498 145.013C149.566 144.919 149.66 144.846 149.769 144.805C149.878 144.764 149.996 144.757 150.109 144.783C150.223 144.809 150.326 144.869 150.405 144.953C150.511 145.067 150.568 145.218 150.564 145.373C150.559 145.529 150.492 145.676 150.379 145.783Z" fill="#E1BA48" stroke="#1F2122" stroke-width="0.432" stroke-linecap="round" stroke-linejoin="round"/>
<path d="M149.748 143.584C149.661 143.49 149.555 143.414 149.438 143.362C149.321 143.309 149.195 143.279 149.066 143.275C148.938 143.271 148.81 143.293 148.69 143.338C148.57 143.384 148.46 143.453 148.366 143.541C148.233 143.67 148.138 143.833 148.09 144.012C147.97 143.933 147.828 143.896 147.685 143.908C147.543 143.92 147.408 143.979 147.303 144.076C147.19 144.197 147.126 144.357 147.126 144.523C147.126 144.688 147.189 144.848 147.302 144.969C147.416 145.09 147.571 145.163 147.736 145.174C147.902 145.185 148.065 145.132 148.193 145.027C148.232 144.983 148.265 144.935 148.293 144.884C148.293 144.884 148.293 144.91 148.323 144.919C148.411 145.012 148.516 145.088 148.633 145.141C148.749 145.194 148.875 145.223 149.004 145.227C149.132 145.231 149.259 145.21 149.38 145.165C149.5 145.12 149.609 145.052 149.703 144.964C149.797 144.876 149.872 144.771 149.925 144.654C149.978 144.538 150.007 144.412 150.012 144.283C150.016 144.155 149.995 144.027 149.95 143.907C149.904 143.787 149.836 143.677 149.748 143.584Z" fill="#E1BA48" stroke="#1F2122" stroke-width="0.432" stroke-linecap="round" stroke-linejoin="round"/>
<path d="M149.001 146.357C148.913 146.443 148.801 146.499 148.68 146.521C148.559 146.542 148.435 146.527 148.323 146.477C148.21 146.427 148.115 146.345 148.05 146.241C147.985 146.137 147.952 146.016 147.955 145.894C147.959 145.771 147.999 145.652 148.071 145.552C148.142 145.453 148.242 145.376 148.357 145.333C148.472 145.291 148.597 145.283 148.716 145.311C148.836 145.34 148.944 145.403 149.027 145.493C149.138 145.612 149.197 145.769 149.192 145.931C149.187 146.093 149.119 146.246 149.001 146.357Z" fill="#E1BA48" stroke="#1F2122" stroke-width="0.432" stroke-linecap="round" stroke-linejoin="round"/>
<path d="M163.849 148.301C163.769 148.373 163.666 148.413 163.559 148.413C163.452 148.413 163.349 148.373 163.27 148.301C163.21 148.268 163.159 148.222 163.121 148.165C163.083 148.109 163.059 148.044 163.051 147.976C163.042 147.909 163.05 147.84 163.073 147.776C163.097 147.712 163.135 147.655 163.184 147.608C163.234 147.562 163.294 147.527 163.36 147.509C163.425 147.49 163.494 147.486 163.561 147.499C163.628 147.512 163.691 147.541 163.745 147.582C163.798 147.624 163.841 147.678 163.87 147.74C163.94 147.818 163.976 147.92 163.972 148.025C163.968 148.13 163.924 148.229 163.849 148.301Z" fill="#E1BA48" stroke="#1F2122" stroke-width="0.432" stroke-linecap="round" stroke-linejoin="round"/>
<path d="M163.408 146.763C163.346 146.698 163.272 146.645 163.19 146.607C163.107 146.57 163.019 146.55 162.928 146.547C162.838 146.544 162.748 146.559 162.664 146.591C162.579 146.623 162.502 146.671 162.436 146.733C162.343 146.825 162.275 146.94 162.242 147.066C162.172 147.029 162.095 147.012 162.016 147.016C161.938 147.02 161.862 147.045 161.797 147.088C161.732 147.132 161.68 147.193 161.647 147.264C161.614 147.335 161.6 147.413 161.608 147.491C161.617 147.569 161.646 147.644 161.693 147.706C161.74 147.769 161.803 147.818 161.875 147.847C161.948 147.877 162.027 147.886 162.105 147.874C162.182 147.862 162.255 147.829 162.315 147.779C162.344 147.748 162.369 147.713 162.388 147.675C162.387 147.685 162.387 147.695 162.388 147.705C162.513 147.838 162.686 147.916 162.868 147.922C163.05 147.927 163.228 147.86 163.36 147.735C163.493 147.611 163.571 147.438 163.577 147.256C163.583 147.073 163.516 146.896 163.391 146.763H163.408Z" fill="#E1BA48" stroke="#1F2122" stroke-width="0.432" stroke-linecap="round" stroke-linejoin="round"/>
<path d="M162.864 148.707C162.803 148.767 162.726 148.808 162.643 148.825C162.559 148.841 162.472 148.832 162.394 148.799C162.315 148.767 162.248 148.711 162.2 148.64C162.153 148.569 162.128 148.486 162.128 148.401C162.128 148.315 162.153 148.232 162.2 148.161C162.248 148.09 162.315 148.035 162.394 148.002C162.472 147.969 162.559 147.96 162.643 147.977C162.726 147.993 162.803 148.034 162.864 148.094C162.904 148.134 162.937 148.182 162.958 148.234C162.98 148.287 162.992 148.344 162.992 148.401C162.992 148.458 162.98 148.514 162.958 148.567C162.937 148.619 162.904 148.667 162.864 148.707Z" fill="#E1BA48" stroke="#1F2122" stroke-width="0.432" stroke-linecap="round" stroke-linejoin="round"/>
<path d="M161.49 145.861C161.411 145.932 161.308 145.972 161.201 145.972C161.094 145.972 160.991 145.932 160.911 145.861C160.846 145.802 160.801 145.725 160.781 145.64C160.76 145.555 160.766 145.466 160.797 145.385C160.829 145.303 160.884 145.233 160.956 145.184C161.028 145.134 161.113 145.108 161.201 145.108C161.288 145.108 161.373 145.134 161.445 145.184C161.517 145.233 161.573 145.303 161.604 145.385C161.635 145.466 161.641 145.555 161.621 145.64C161.601 145.725 161.555 145.802 161.49 145.861Z" fill="#E1BA48" stroke="#1F2122" stroke-width="0.432" stroke-linecap="round" stroke-linejoin="round"/>
<path d="M161.049 144.323C160.988 144.257 160.913 144.204 160.831 144.166C160.749 144.129 160.66 144.109 160.57 144.106C160.479 144.103 160.389 144.118 160.305 144.15C160.221 144.182 160.143 144.23 160.077 144.292C159.983 144.383 159.916 144.498 159.883 144.625C159.8 144.566 159.7 144.538 159.599 144.546C159.498 144.554 159.403 144.597 159.33 144.668C159.241 144.751 159.189 144.866 159.185 144.988C159.181 145.109 159.225 145.227 159.308 145.316C159.392 145.405 159.506 145.457 159.628 145.461C159.75 145.465 159.868 145.421 159.956 145.338C159.986 145.307 160.011 145.272 160.03 145.234C160.028 145.244 160.028 145.254 160.03 145.264C160.092 145.33 160.166 145.383 160.248 145.42C160.331 145.457 160.419 145.478 160.51 145.481C160.6 145.484 160.69 145.469 160.774 145.437C160.859 145.405 160.936 145.356 161.002 145.295C161.068 145.233 161.121 145.159 161.158 145.076C161.195 144.994 161.216 144.905 161.218 144.815C161.221 144.725 161.206 144.635 161.174 144.55C161.142 144.466 161.094 144.388 161.032 144.323H161.049Z" fill="#E1BA48" stroke="#1F2122" stroke-width="0.432" stroke-linecap="round" stroke-linejoin="round"/>
<path d="M160.522 146.267C160.46 146.324 160.381 146.362 160.297 146.376C160.213 146.389 160.127 146.377 160.049 146.342C159.972 146.306 159.906 146.249 159.862 146.176C159.817 146.103 159.795 146.019 159.798 145.934C159.801 145.849 159.829 145.766 159.879 145.697C159.928 145.628 159.997 145.575 160.077 145.545C160.157 145.515 160.244 145.509 160.327 145.528C160.41 145.548 160.486 145.591 160.544 145.653C160.583 145.695 160.614 145.744 160.634 145.797C160.654 145.85 160.663 145.907 160.661 145.964C160.659 146.021 160.646 146.078 160.622 146.129C160.598 146.181 160.564 146.228 160.522 146.267Z" fill="#E1BA48" stroke="#1F2122" stroke-width="0.432" stroke-linecap="round" stroke-linejoin="round"/>
<path d="M131.704 138.923C131.705 139.039 131.671 139.153 131.607 139.25C131.543 139.347 131.451 139.423 131.344 139.469C131.237 139.514 131.118 139.526 131.004 139.504C130.89 139.482 130.785 139.426 130.702 139.344C130.62 139.262 130.563 139.157 130.54 139.043C130.517 138.929 130.529 138.811 130.573 138.703C130.617 138.596 130.693 138.504 130.789 138.439C130.886 138.374 131 138.339 131.116 138.339C131.271 138.339 131.42 138.401 131.53 138.51C131.64 138.619 131.703 138.768 131.704 138.923Z" fill="#E1BA48" stroke="#1F2122" stroke-width="0.432" stroke-linecap="round" stroke-linejoin="round"/>
<path d="M129.678 137.886C129.419 137.886 129.17 137.989 128.987 138.172C128.804 138.355 128.701 138.603 128.701 138.862C128.7 139.049 128.755 139.233 128.857 139.389C128.717 139.422 128.593 139.501 128.504 139.613C128.415 139.725 128.365 139.864 128.364 140.007C128.354 140.098 128.363 140.191 128.39 140.279C128.418 140.366 128.464 140.447 128.525 140.516C128.587 140.585 128.662 140.64 128.746 140.677C128.829 140.715 128.92 140.734 129.012 140.734C129.104 140.734 129.195 140.715 129.279 140.677C129.363 140.64 129.438 140.585 129.499 140.516C129.561 140.447 129.607 140.366 129.634 140.279C129.662 140.191 129.671 140.098 129.66 140.007C129.658 139.948 129.646 139.89 129.626 139.834H129.673C129.932 139.834 130.181 139.731 130.364 139.548C130.547 139.365 130.65 139.117 130.65 138.858C130.65 138.599 130.547 138.351 130.364 138.168C130.181 137.984 129.932 137.882 129.673 137.882L129.678 137.886Z" fill="#E1BA48" stroke="#1F2122" stroke-width="0.432" stroke-linecap="round" stroke-linejoin="round"/>
<path d="M130.563 140.94C130.904 140.94 131.181 140.664 131.181 140.322C131.181 139.981 130.904 139.705 130.563 139.705C130.222 139.705 129.945 139.981 129.945 140.322C129.945 140.664 130.222 140.94 130.563 140.94Z" fill="#E1BA48" stroke="#1F2122" stroke-width="0.432" stroke-linecap="round" stroke-linejoin="round"/>
<path d="M133.116 144.098C133.053 144.134 132.981 144.151 132.909 144.147C132.836 144.142 132.767 144.116 132.709 144.072C132.651 144.028 132.608 143.967 132.584 143.899C132.561 143.83 132.559 143.756 132.577 143.685C132.596 143.615 132.635 143.552 132.69 143.504C132.744 143.456 132.812 143.426 132.884 143.416C132.956 143.407 133.029 143.419 133.095 143.451C133.16 143.483 133.214 143.534 133.25 143.597C133.299 143.681 133.312 143.781 133.287 143.875C133.262 143.969 133.2 144.049 133.116 144.098Z" fill="#E1BA48" stroke="#1F2122" stroke-width="0.432" stroke-linecap="round" stroke-linejoin="round"/>
<path d="M133.056 142.672C133.016 142.603 132.963 142.542 132.899 142.493C132.836 142.444 132.763 142.408 132.686 142.387C132.608 142.366 132.527 142.361 132.448 142.371C132.368 142.382 132.292 142.408 132.222 142.448C132.12 142.506 132.037 142.593 131.985 142.698C131.931 142.644 131.864 142.605 131.79 142.587C131.715 142.569 131.638 142.572 131.565 142.596C131.493 142.62 131.428 142.664 131.38 142.723C131.331 142.782 131.3 142.853 131.29 142.929C131.281 143.004 131.292 143.081 131.324 143.151C131.356 143.22 131.407 143.279 131.471 143.321C131.535 143.363 131.609 143.386 131.685 143.387C131.762 143.389 131.837 143.368 131.902 143.329C131.933 143.311 131.961 143.287 131.985 143.26V143.286C132.021 143.362 132.073 143.43 132.137 143.485C132.201 143.54 132.276 143.581 132.357 143.606C132.438 143.631 132.523 143.639 132.607 143.629C132.691 143.619 132.772 143.593 132.845 143.55C132.918 143.508 132.981 143.451 133.031 143.383C133.081 143.315 133.117 143.237 133.136 143.155C133.154 143.072 133.155 142.987 133.14 142.904C133.124 142.821 133.091 142.742 133.043 142.672H133.056Z" fill="#E1BA48" stroke="#1F2122" stroke-width="0.432" stroke-linecap="round" stroke-linejoin="round"/>
<path d="M132.192 144.253C132.148 144.285 132.098 144.307 132.045 144.318C131.992 144.328 131.937 144.328 131.884 144.317C131.831 144.305 131.782 144.283 131.738 144.251C131.694 144.219 131.657 144.179 131.63 144.132C131.603 144.085 131.586 144.033 131.58 143.979C131.574 143.926 131.579 143.871 131.596 143.82C131.612 143.768 131.639 143.721 131.675 143.68C131.71 143.639 131.754 143.607 131.803 143.584C131.891 143.543 131.991 143.537 132.083 143.566C132.176 143.595 132.254 143.658 132.303 143.741C132.351 143.825 132.367 143.924 132.347 144.019C132.326 144.114 132.271 144.197 132.192 144.253Z" fill="#E1BA48" stroke="#1F2122" stroke-width="0.432" stroke-linecap="round" stroke-linejoin="round"/>
<path d="M143.182 141.528C143.183 141.644 143.149 141.758 143.085 141.855C143.021 141.952 142.93 142.028 142.822 142.073C142.715 142.119 142.597 142.131 142.483 142.109C142.368 142.086 142.263 142.031 142.181 141.949C142.098 141.867 142.042 141.762 142.019 141.648C141.996 141.534 142.007 141.416 142.051 141.308C142.096 141.2 142.171 141.108 142.268 141.044C142.364 140.979 142.478 140.944 142.594 140.944C142.75 140.944 142.898 141.006 143.008 141.115C143.118 141.224 143.181 141.372 143.182 141.528Z" fill="#E1BA48" stroke="#1F2122" stroke-width="0.432" stroke-linecap="round" stroke-linejoin="round"/>
<path d="M141.152 140.491C140.893 140.491 140.644 140.594 140.461 140.777C140.278 140.96 140.175 141.208 140.175 141.467C140.177 141.654 140.231 141.837 140.331 141.994C140.191 142.027 140.067 142.106 139.978 142.218C139.889 142.33 139.839 142.469 139.838 142.612C139.828 142.703 139.837 142.796 139.864 142.884C139.892 142.971 139.938 143.052 139.999 143.121C140.061 143.189 140.136 143.244 140.22 143.282C140.303 143.32 140.394 143.339 140.486 143.339C140.578 143.339 140.669 143.32 140.753 143.282C140.837 143.244 140.912 143.189 140.973 143.121C141.035 143.052 141.081 142.971 141.108 142.884C141.136 142.796 141.145 142.703 141.134 142.612C141.132 142.553 141.12 142.495 141.1 142.439H141.147C141.406 142.439 141.655 142.336 141.838 142.153C142.021 141.97 142.124 141.722 142.124 141.463C142.124 141.204 142.021 140.956 141.838 140.772C141.655 140.589 141.406 140.486 141.147 140.486L141.152 140.491Z" fill="#E1BA48" stroke="#1F2122" stroke-width="0.432" stroke-linecap="round" stroke-linejoin="round"/>
<path d="M142.659 142.927C142.659 143.049 142.623 143.169 142.555 143.27C142.487 143.372 142.391 143.451 142.278 143.498C142.165 143.545 142.041 143.557 141.921 143.533C141.801 143.509 141.691 143.45 141.605 143.364C141.518 143.278 141.459 143.168 141.436 143.048C141.412 142.928 141.424 142.804 141.471 142.691C141.517 142.578 141.597 142.481 141.698 142.414C141.8 142.346 141.919 142.309 142.041 142.309C142.205 142.309 142.362 142.375 142.478 142.49C142.594 142.606 142.659 142.763 142.659 142.927Z" fill="#E1BA48" stroke="#1F2122" stroke-width="0.432" stroke-linecap="round" stroke-linejoin="round"/>
<path d="M125.612 141.856C125.612 141.972 125.578 142.086 125.513 142.182C125.449 142.279 125.357 142.354 125.25 142.399C125.142 142.443 125.024 142.455 124.91 142.432C124.796 142.409 124.692 142.353 124.609 142.271C124.527 142.189 124.471 142.084 124.449 141.97C124.426 141.856 124.438 141.738 124.482 141.631C124.527 141.524 124.602 141.432 124.698 141.367C124.795 141.303 124.909 141.268 125.025 141.268C125.102 141.268 125.179 141.283 125.25 141.312C125.322 141.341 125.387 141.384 125.442 141.439C125.496 141.494 125.54 141.559 125.569 141.63C125.598 141.702 125.613 141.779 125.612 141.856Z" fill="#E1BA48" stroke="#1F2122" stroke-width="0.432" stroke-linecap="round" stroke-linejoin="round"/>
<path d="M123.587 140.815C123.328 140.815 123.079 140.918 122.896 141.101C122.713 141.284 122.61 141.532 122.61 141.791C122.609 141.977 122.663 142.159 122.766 142.314C122.623 142.344 122.494 142.422 122.402 142.535C122.309 142.648 122.258 142.79 122.256 142.936C122.274 143.095 122.351 143.242 122.47 143.348C122.59 143.454 122.744 143.513 122.904 143.513C123.064 143.513 123.218 143.454 123.338 143.348C123.457 143.242 123.534 143.095 123.552 142.936C123.548 142.877 123.536 142.819 123.517 142.763H123.565C123.824 142.763 124.072 142.66 124.255 142.477C124.438 142.294 124.541 142.046 124.541 141.787C124.541 141.528 124.438 141.279 124.255 141.096C124.072 140.913 123.824 140.81 123.565 140.81L123.587 140.815Z" fill="#E1BA48" stroke="#1F2122" stroke-width="0.432" stroke-linecap="round" stroke-linejoin="round"/>
<path d="M124.472 143.869C124.813 143.869 125.09 143.592 125.09 143.251C125.09 142.91 124.813 142.634 124.472 142.634C124.131 142.634 123.854 142.91 123.854 143.251C123.854 143.592 124.131 143.869 124.472 143.869Z" fill="#E1BA48" stroke="#1F2122" stroke-width="0.432" stroke-linecap="round" stroke-linejoin="round"/>
<path d="M116.009 143.066C115.925 143.145 115.818 143.198 115.704 143.217C115.589 143.236 115.471 143.221 115.365 143.173C115.259 143.126 115.17 143.048 115.108 142.949C115.047 142.85 115.016 142.736 115.019 142.619C115.023 142.503 115.061 142.391 115.128 142.296C115.196 142.202 115.29 142.129 115.399 142.088C115.508 142.047 115.626 142.039 115.74 142.066C115.853 142.092 115.956 142.151 116.035 142.236C116.142 142.35 116.199 142.501 116.194 142.656C116.189 142.812 116.122 142.959 116.009 143.066Z" fill="#E1BA48" stroke="#1F2122" stroke-width="0.432" stroke-linecap="round" stroke-linejoin="round"/>
<path d="M115.378 140.875C115.291 140.781 115.185 140.706 115.068 140.653C114.951 140.6 114.825 140.571 114.696 140.567C114.568 140.563 114.44 140.584 114.32 140.63C114.199 140.675 114.089 140.744 113.996 140.832C113.862 140.961 113.767 141.124 113.719 141.303C113.6 141.224 113.458 141.188 113.315 141.2C113.173 141.211 113.038 141.271 112.933 141.368C112.82 141.489 112.756 141.648 112.756 141.814C112.756 141.98 112.819 142.139 112.932 142.26C113.046 142.382 113.201 142.455 113.366 142.466C113.532 142.476 113.695 142.424 113.823 142.318C113.862 142.275 113.895 142.227 113.922 142.176C113.934 142.186 113.944 142.198 113.953 142.21C114.04 142.304 114.146 142.379 114.262 142.432C114.379 142.485 114.505 142.514 114.633 142.519C114.762 142.523 114.889 142.502 115.009 142.457C115.129 142.411 115.239 142.343 115.333 142.255C115.427 142.168 115.502 142.063 115.555 141.946C115.608 141.829 115.637 141.703 115.642 141.575C115.646 141.447 115.625 141.319 115.58 141.199C115.534 141.079 115.466 140.969 115.378 140.875Z" fill="#E1BA48" stroke="#1F2122" stroke-width="0.432" stroke-linecap="round" stroke-linejoin="round"/>
<path d="M114.631 143.64C114.543 143.725 114.431 143.782 114.31 143.803C114.189 143.824 114.065 143.809 113.952 143.76C113.84 143.71 113.745 143.628 113.68 143.524C113.615 143.42 113.582 143.299 113.585 143.176C113.589 143.054 113.629 142.935 113.701 142.835C113.772 142.735 113.872 142.659 113.987 142.616C114.102 142.573 114.227 142.565 114.346 142.594C114.466 142.622 114.574 142.686 114.657 142.776C114.768 142.894 114.827 143.052 114.822 143.213C114.817 143.375 114.749 143.529 114.631 143.64Z" fill="#E1BA48" stroke="#1F2122" stroke-width="0.432" stroke-linecap="round" stroke-linejoin="round"/>
<path d="M137.808 142.495C137.749 142.56 137.672 142.605 137.588 142.624C137.503 142.644 137.414 142.638 137.333 142.606C137.252 142.575 137.182 142.52 137.133 142.448C137.084 142.376 137.057 142.291 137.057 142.204C137.057 142.117 137.084 142.032 137.133 141.96C137.182 141.888 137.252 141.833 137.333 141.801C137.414 141.77 137.503 141.763 137.588 141.783C137.672 141.803 137.749 141.848 137.808 141.912C137.881 141.992 137.921 142.096 137.921 142.204C137.921 142.312 137.881 142.416 137.808 142.495Z" fill="#E1BA48" stroke="#1F2122" stroke-width="0.432" stroke-linecap="round" stroke-linejoin="round"/>
<path d="M137.341 140.957C137.28 140.892 137.206 140.839 137.124 140.802C137.042 140.764 136.954 140.744 136.864 140.741C136.774 140.738 136.684 140.753 136.6 140.785C136.516 140.817 136.439 140.865 136.374 140.927C136.278 141.017 136.21 141.132 136.179 141.26C136.096 141.2 135.995 141.171 135.893 141.179C135.791 141.187 135.695 141.231 135.622 141.303C135.537 141.389 135.489 141.506 135.489 141.627C135.489 141.748 135.537 141.865 135.622 141.951C135.662 141.996 135.712 142.032 135.768 142.057C135.823 142.082 135.883 142.095 135.944 142.095C136.005 142.095 136.065 142.082 136.12 142.057C136.175 142.032 136.225 141.996 136.266 141.951C136.294 141.919 136.319 141.885 136.339 141.847V141.878C136.464 142.01 136.637 142.088 136.819 142.094C137.001 142.1 137.178 142.033 137.311 141.908C137.444 141.783 137.522 141.61 137.527 141.428C137.533 141.246 137.466 141.069 137.341 140.936V140.957Z" fill="#E1BA48" stroke="#1F2122" stroke-width="0.432" stroke-linecap="round" stroke-linejoin="round"/>
<path d="M136.819 142.901C136.758 142.961 136.681 143.002 136.597 143.019C136.514 143.035 136.427 143.026 136.348 142.993C136.27 142.961 136.202 142.905 136.155 142.834C136.108 142.763 136.083 142.68 136.083 142.595C136.083 142.509 136.108 142.426 136.155 142.355C136.202 142.284 136.27 142.229 136.348 142.196C136.427 142.163 136.514 142.154 136.597 142.171C136.681 142.187 136.758 142.228 136.819 142.288C136.859 142.328 136.891 142.376 136.913 142.428C136.935 142.481 136.947 142.538 136.947 142.595C136.947 142.652 136.935 142.708 136.913 142.761C136.891 142.813 136.859 142.861 136.819 142.901Z" fill="#E1BA48" stroke="#1F2122" stroke-width="0.432" stroke-linecap="round" stroke-linejoin="round"/>
<path d="M135.428 140.055C135.369 140.119 135.292 140.164 135.207 140.184C135.122 140.203 135.034 140.197 134.952 140.166C134.871 140.134 134.802 140.079 134.752 140.007C134.703 139.935 134.677 139.85 134.677 139.763C134.677 139.676 134.703 139.591 134.752 139.519C134.802 139.447 134.871 139.392 134.952 139.36C135.034 139.329 135.122 139.322 135.207 139.342C135.292 139.362 135.369 139.407 135.428 139.471C135.5 139.551 135.541 139.655 135.541 139.763C135.541 139.871 135.5 139.975 135.428 140.055Z" fill="#E1BA48" stroke="#1F2122" stroke-width="0.432" stroke-linecap="round" stroke-linejoin="round"/>
<path d="M134.983 138.517C134.921 138.451 134.847 138.398 134.765 138.361C134.683 138.324 134.595 138.303 134.505 138.3C134.415 138.297 134.325 138.312 134.241 138.344C134.157 138.376 134.08 138.424 134.015 138.486C133.918 138.575 133.851 138.691 133.82 138.819C133.737 138.759 133.636 138.73 133.534 138.738C133.432 138.746 133.336 138.79 133.263 138.862C133.178 138.949 133.131 139.065 133.131 139.186C133.131 139.307 133.178 139.424 133.263 139.51C133.346 139.598 133.46 139.649 133.581 139.653C133.701 139.657 133.818 139.614 133.907 139.532C133.935 139.5 133.96 139.465 133.98 139.428C133.98 139.428 133.98 139.45 133.98 139.454C134.042 139.519 134.116 139.572 134.198 139.609C134.28 139.646 134.368 139.667 134.458 139.669C134.548 139.672 134.637 139.657 134.721 139.626C134.805 139.594 134.882 139.546 134.948 139.484C135.013 139.423 135.066 139.349 135.103 139.267C135.14 139.185 135.161 139.096 135.163 139.007C135.166 138.917 135.151 138.827 135.12 138.743C135.088 138.659 135.04 138.582 134.978 138.517H134.983Z" fill="#E1BA48" stroke="#1F2122" stroke-width="0.432" stroke-linecap="round" stroke-linejoin="round"/>
<path d="M134.46 140.461C134.399 140.521 134.322 140.561 134.239 140.578C134.155 140.594 134.068 140.585 133.99 140.553C133.911 140.52 133.844 140.464 133.796 140.393C133.749 140.322 133.724 140.239 133.724 140.154C133.724 140.069 133.749 139.985 133.796 139.914C133.844 139.843 133.911 139.788 133.99 139.755C134.068 139.722 134.155 139.713 134.239 139.73C134.322 139.746 134.399 139.787 134.46 139.847C134.5 139.887 134.533 139.935 134.555 139.988C134.576 140.04 134.588 140.097 134.588 140.154C134.588 140.211 134.576 140.267 134.555 140.32C134.533 140.373 134.5 140.42 134.46 140.461Z" fill="#E1BA48" stroke="#1F2122" stroke-width="0.432" stroke-linecap="round" stroke-linejoin="round"/>
<path d="M91.7265 94.5994C91.7265 94.6994 91.6968 94.7971 91.6413 94.8802C91.5857 94.9634 91.5068 95.0281 91.4144 95.0664C91.3221 95.1047 91.2205 95.1147 91.1224 95.0952C91.0244 95.0757 90.9343 95.0275 90.8636 94.9568C90.7929 94.8861 90.7448 94.7961 90.7253 94.698C90.7058 94.6 90.7158 94.4984 90.754 94.406C90.7923 94.3137 90.8571 94.2347 90.9402 94.1792C91.0233 94.1236 91.1211 94.094 91.221 94.094C91.3551 94.094 91.4836 94.1472 91.5784 94.242C91.6732 94.3368 91.7265 94.4654 91.7265 94.5994Z" fill="#E1BA48" stroke="#1F2122" stroke-width="0.432" stroke-linecap="round" stroke-linejoin="round"/>
<path d="M89.9769 93.7053C89.8259 93.7055 89.6778 93.7463 89.548 93.8234C89.4182 93.9005 89.3115 94.0111 89.2391 94.1436C89.1667 94.276 89.1312 94.4255 89.1364 94.5764C89.1415 94.7273 89.1871 94.874 89.2684 95.0013C89.1465 95.0286 89.0374 95.0964 88.9589 95.1937C88.8805 95.291 88.8373 95.412 88.8364 95.5369C88.8364 95.6859 88.8956 95.8287 89.0009 95.934C89.1062 96.0394 89.2491 96.0985 89.398 96.0985C89.547 96.0985 89.6898 96.0394 89.7951 95.934C89.9005 95.8287 89.9596 95.6859 89.9596 95.5369C89.9567 95.4854 89.9465 95.4345 89.9294 95.3857H89.9683C90.1917 95.3857 90.406 95.297 90.5639 95.139C90.7219 94.981 90.8107 94.7668 90.8107 94.5433C90.8107 94.3199 90.7219 94.1056 90.5639 93.9477C90.406 93.7897 90.1917 93.7009 89.9683 93.7009L89.9769 93.7053Z" fill="#E1BA48" stroke="#1F2122" stroke-width="0.432" stroke-linecap="round" stroke-linejoin="round"/>
<path d="M91.2772 95.809C91.2772 95.9151 91.2456 96.0189 91.1866 96.1071C91.1275 96.1952 91.0436 96.2639 90.9455 96.3043C90.8473 96.3447 90.7394 96.3551 90.6354 96.3341C90.5314 96.313 90.4359 96.2616 90.3612 96.1862C90.2864 96.1109 90.2358 96.015 90.2156 95.9108C90.1954 95.8066 90.2066 95.6988 90.2478 95.601C90.289 95.5032 90.3584 95.4198 90.447 95.3615C90.5357 95.3032 90.6397 95.2725 90.7458 95.2733C90.816 95.2733 90.8854 95.2872 90.9502 95.3142C91.0149 95.3412 91.0737 95.3807 91.1231 95.4305C91.1725 95.4803 91.2115 95.5394 91.238 95.6043C91.2644 95.6693 91.2777 95.7389 91.2772 95.809Z" fill="#E1BA48" stroke="#1F2122" stroke-width="0.432" stroke-linecap="round" stroke-linejoin="round"/>
<path d="M80.7838 97.4982C80.711 97.54 80.6246 97.5512 80.5436 97.5294C80.4626 97.5075 80.3936 97.4543 80.3518 97.3816C80.31 97.3088 80.2988 97.2224 80.3206 97.1414C80.3425 97.0604 80.3957 96.9914 80.4684 96.9496C80.5044 96.9288 80.5442 96.9154 80.5854 96.9101C80.6266 96.9048 80.6685 96.9076 80.7086 96.9184C80.7487 96.9292 80.7863 96.9479 80.8192 96.9732C80.8521 96.9986 80.8797 97.0302 80.9004 97.0662C80.9211 97.1022 80.9345 97.142 80.9399 97.1832C80.9452 97.2244 80.9424 97.2662 80.9316 97.3064C80.9207 97.3465 80.9021 97.3841 80.8768 97.417C80.8514 97.4499 80.8198 97.4775 80.7838 97.4982Z" fill="#E1BA48" stroke="#1F2122" stroke-width="0.432" stroke-linecap="round" stroke-linejoin="round"/>
<path d="M80.7365 96.2669C80.702 96.2066 80.656 96.1538 80.601 96.1113C80.546 96.0689 80.4832 96.0378 80.4162 96.0197C80.3491 96.0017 80.2792 95.997 80.2104 96.0061C80.1415 96.0151 80.0751 96.0377 80.015 96.0725C79.9274 96.124 79.8556 96.1988 79.8077 96.2885C79.7542 96.2296 79.6819 96.191 79.6032 96.1792C79.5245 96.1674 79.4441 96.1831 79.3757 96.2237C79.2961 96.2715 79.2384 96.3487 79.2151 96.4386C79.1919 96.5286 79.2049 96.624 79.2513 96.7045C79.2978 96.7849 79.374 96.8439 79.4635 96.8687C79.553 96.8935 79.6487 96.8822 79.7299 96.8371C79.7559 96.8189 79.7792 96.7971 79.799 96.7723V96.7939C79.8689 96.9154 79.9842 97.0041 80.1195 97.0405C80.2548 97.077 80.399 97.0582 80.5205 96.9883C80.6419 96.9184 80.7306 96.8031 80.7671 96.6678C80.8036 96.5326 80.7848 96.3883 80.7149 96.2669H80.7365Z" fill="#E1BA48" stroke="#1F2122" stroke-width="0.432" stroke-linecap="round" stroke-linejoin="round"/>
<path d="M80.002 97.6322C79.9445 97.6661 79.8781 97.6822 79.8114 97.6784C79.7447 97.6745 79.6807 97.651 79.6274 97.6107C79.5741 97.5703 79.534 97.5151 79.5122 97.4519C79.4904 97.3887 79.4879 97.3205 79.505 97.2559C79.522 97.1913 79.5579 97.1332 79.608 97.0891C79.6582 97.0449 79.7203 97.0167 79.7866 97.0079C79.8528 96.9992 79.9202 97.0103 79.9801 97.0399C80.04 97.0695 80.0897 97.1163 80.123 97.1742C80.1454 97.2122 80.1601 97.2542 80.1661 97.2978C80.1722 97.3415 80.1695 97.3859 80.1582 97.4285C80.147 97.4711 80.1274 97.511 80.1006 97.546C80.0738 97.581 80.0403 97.6102 80.002 97.6322Z" fill="#E1BA48" stroke="#1F2122" stroke-width="0.432" stroke-linecap="round" stroke-linejoin="round"/>
<path d="M92.9448 99.0879C92.8716 99.1278 92.7859 99.1379 92.7054 99.1162C92.625 99.0945 92.556 99.0426 92.5128 98.9713C92.4806 98.9166 92.4654 98.8535 92.4692 98.7901C92.473 98.7267 92.4956 98.6659 92.5341 98.6154C92.5726 98.5649 92.6252 98.527 92.6854 98.5065C92.7455 98.4861 92.8103 98.484 92.8716 98.5006C92.9329 98.5171 92.9879 98.5515 93.0296 98.5995C93.0713 98.6474 93.0977 98.7067 93.1055 98.7697C93.1134 98.8327 93.1023 98.8966 93.0737 98.9533C93.045 99.01 93.0002 99.0569 92.9448 99.0879Z" fill="#E1BA48" stroke="#1F2122" stroke-width="0.432" stroke-linecap="round" stroke-linejoin="round"/>
<path d="M92.8799 97.8351C92.8454 97.7748 92.7993 97.722 92.7444 97.6796C92.6894 97.6372 92.6266 97.606 92.5596 97.588C92.4925 97.5699 92.4226 97.5653 92.3537 97.5743C92.2849 97.5834 92.2185 97.6059 92.1584 97.6407C92.071 97.6912 92.0004 97.7663 91.9554 97.8567C91.9019 97.7978 91.8296 97.7592 91.7509 97.7474C91.6722 97.7356 91.5919 97.7513 91.5234 97.7919C91.4498 97.8421 91.3978 97.9181 91.3777 98.0049C91.3577 98.0916 91.3711 98.1828 91.4152 98.2601C91.4593 98.3375 91.531 98.3954 91.6159 98.4223C91.7008 98.4492 91.7927 98.4432 91.8733 98.4054C91.9006 98.3872 91.9254 98.3654 91.9468 98.3405C91.9468 98.3405 91.9468 98.3405 91.9468 98.3621C91.9814 98.4234 92.0277 98.4773 92.0831 98.5206C92.1385 98.564 92.202 98.596 92.2698 98.6149C92.3375 98.6337 92.4084 98.639 92.4782 98.6305C92.5481 98.622 92.6156 98.5998 92.6768 98.5652C92.7381 98.5306 92.792 98.4842 92.8353 98.4288C92.8787 98.3734 92.9107 98.31 92.9296 98.2422C92.9484 98.1744 92.9537 98.1036 92.9452 98.0337C92.9367 97.9639 92.9145 97.8964 92.8799 97.8351Z" fill="#E1BA48" stroke="#1F2122" stroke-width="0.432" stroke-linecap="round" stroke-linejoin="round"/>
<path d="M92.1454 99.2003C92.1075 99.2227 92.0655 99.2373 92.0219 99.2434C91.9782 99.2495 91.9338 99.2468 91.8912 99.2355C91.8486 99.2243 91.8086 99.2047 91.7737 99.1778C91.7387 99.151 91.7094 99.1175 91.6875 99.0793C91.6536 99.0217 91.6375 98.9554 91.6413 98.8887C91.6451 98.822 91.6687 98.7579 91.709 98.7046C91.7494 98.6514 91.8046 98.6113 91.8678 98.5895C91.9309 98.5677 91.9992 98.5652 92.0638 98.5822C92.1284 98.5993 92.1864 98.6352 92.2306 98.6853C92.2748 98.7355 92.303 98.7976 92.3118 98.8639C92.3205 98.9301 92.3094 98.9974 92.2798 99.0573C92.2502 99.1172 92.2034 99.167 92.1454 99.2003Z" fill="#E1BA48" stroke="#1F2122" stroke-width="0.432" stroke-linecap="round" stroke-linejoin="round"/>
<path d="M86.469 97.1266C86.469 97.2266 86.4394 97.3243 86.3838 97.4075C86.3283 97.4906 86.2494 97.5554 86.157 97.5936C86.0646 97.6319 85.963 97.6419 85.865 97.6224C85.7669 97.6029 85.6769 97.5547 85.6062 97.4841C85.5355 97.4134 85.4873 97.3233 85.4678 97.2253C85.4483 97.1272 85.4583 97.0256 85.4966 96.9332C85.5349 96.8409 85.5996 96.7619 85.6828 96.7064C85.7659 96.6509 85.8636 96.6212 85.9636 96.6212C86.0976 96.6212 86.2262 96.6745 86.321 96.7693C86.4158 96.864 86.469 96.9926 86.469 97.1266Z" fill="#E1BA48" stroke="#1F2122" stroke-width="0.432" stroke-linecap="round" stroke-linejoin="round"/>
<path d="M84.7194 96.2324C84.4939 96.2323 84.2774 96.3203 84.116 96.4777C83.9546 96.6351 83.861 96.8494 83.8554 97.0747C83.857 97.2355 83.9034 97.3926 83.9893 97.5284C83.8677 97.5548 83.7587 97.6218 83.6802 97.7184C83.6017 97.8149 83.5584 97.9353 83.5573 98.0597C83.5526 98.1424 83.5662 98.225 83.5971 98.3018C83.628 98.3786 83.6756 98.4476 83.7363 98.5039C83.797 98.5601 83.8694 98.6023 83.9484 98.6273C84.0273 98.6523 84.1107 98.6595 84.1928 98.6485C84.2748 98.6375 84.3534 98.6084 84.423 98.5635C84.4925 98.5185 84.5512 98.4588 84.5949 98.3885C84.6386 98.3182 84.6663 98.2391 84.6758 98.1568C84.6854 98.0746 84.6767 97.9913 84.6503 97.9128H84.6892C84.9126 97.9128 85.1268 97.8241 85.2848 97.6661C85.4428 97.5081 85.5316 97.2938 85.5316 97.0704C85.5316 96.847 85.4428 96.6327 85.2848 96.4748C85.1268 96.3168 84.9126 96.228 84.6892 96.228L84.7194 96.2324Z" fill="#E1BA48" stroke="#1F2122" stroke-width="0.432" stroke-linecap="round" stroke-linejoin="round"/>
<path d="M86.0196 98.3319C86.0204 98.4382 85.9896 98.5424 85.9311 98.6311C85.8726 98.7199 85.789 98.7892 85.6909 98.8303C85.5928 98.8714 85.4848 98.8824 85.3805 98.8618C85.2762 98.8413 85.1803 98.7902 85.1051 98.715C85.03 98.6398 84.9789 98.544 84.9583 98.4397C84.9378 98.3354 84.9488 98.2273 84.9898 98.1292C85.0309 98.0312 85.1003 97.9476 85.189 97.889C85.2778 97.8305 85.3819 97.7997 85.4882 97.8006C85.6292 97.8006 85.7643 97.8565 85.864 97.9562C85.9636 98.0558 86.0196 98.191 86.0196 98.3319Z" fill="#E1BA48" stroke="#1F2122" stroke-width="0.432" stroke-linecap="round" stroke-linejoin="round"/>
<path d="M87.5532 95.9776C87.5167 96.0143 87.4733 96.0434 87.4255 96.0633C87.3776 96.0831 87.3264 96.0934 87.2746 96.0934C87.2228 96.0934 87.1715 96.0831 87.1237 96.0633C87.0759 96.0434 87.0325 96.0143 86.996 95.9776C86.9412 95.9225 86.9039 95.8525 86.8889 95.7763C86.8739 95.7 86.8818 95.6211 86.9116 95.5494C86.9414 95.4777 86.9918 95.4164 87.0564 95.3732C87.121 95.3301 87.1969 95.3071 87.2746 95.3071C87.3523 95.3071 87.4282 95.3301 87.4928 95.3732C87.5574 95.4164 87.6078 95.4777 87.6376 95.5494C87.6674 95.6211 87.6753 95.7 87.6603 95.7763C87.6453 95.8525 87.608 95.9225 87.5532 95.9776Z" fill="#E1BA48" stroke="#1F2122" stroke-width="0.432" stroke-linecap="round" stroke-linejoin="round"/>
<path d="M87.1298 94.5088C87.0709 94.4458 87 94.395 86.9214 94.3594C86.8428 94.3237 86.758 94.3039 86.6717 94.3011C86.5854 94.2983 86.4995 94.3125 86.4187 94.343C86.3379 94.3734 86.264 94.4195 86.201 94.4786C86.1097 94.5633 86.0451 94.6729 86.0153 94.7939C85.9467 94.7516 85.8676 94.7294 85.787 94.7297C85.7064 94.73 85.6275 94.7528 85.5592 94.7956C85.4909 94.8383 85.436 94.8994 85.4005 94.9718C85.3651 95.0442 85.3506 95.125 85.3588 95.2052C85.3669 95.2854 85.3973 95.3617 85.4465 95.4255C85.4957 95.4893 85.5618 95.5381 85.6373 95.5663C85.7128 95.5945 85.7946 95.6011 85.8737 95.5852C85.9527 95.5693 86.0257 95.5317 86.0844 95.4765C86.1122 95.4485 86.1355 95.4165 86.1535 95.3814V95.4074C86.2727 95.5345 86.4375 95.6092 86.6116 95.6148C86.7858 95.6205 86.9551 95.5568 87.0823 95.4376C87.2095 95.3184 87.2841 95.1536 87.2898 94.9795C87.2955 94.8053 87.2317 94.636 87.1125 94.5088H87.1298Z" fill="#E1BA48" stroke="#1F2122" stroke-width="0.432" stroke-linecap="round" stroke-linejoin="round"/>
<path d="M86.6288 96.3663C86.549 96.4403 86.444 96.4815 86.3351 96.4815C86.2261 96.4815 86.1212 96.4403 86.0413 96.3663C85.9979 96.2828 85.9829 96.1875 85.9986 96.0948C86.0143 96.0021 86.0598 95.9171 86.1282 95.8525C86.1966 95.788 86.2842 95.7476 86.3777 95.7374C86.4712 95.7272 86.5654 95.7478 86.6461 95.796C86.713 95.8769 86.7482 95.9794 86.745 96.0844C86.7418 96.1893 86.7005 96.2895 86.6288 96.3663Z" fill="#E1BA48" stroke="#1F2122" stroke-width="0.432" stroke-linecap="round" stroke-linejoin="round"/>
<path d="M94.9405 95.5757C94.8909 95.6253 94.8278 95.659 94.7591 95.6726C94.6904 95.6863 94.6192 95.6793 94.5544 95.6524C94.4897 95.6256 94.4344 95.5802 94.3955 95.522C94.3566 95.4637 94.3358 95.3952 94.3358 95.3252C94.3358 95.2551 94.3566 95.1866 94.3955 95.1284C94.4344 95.0701 94.4897 95.0248 94.5544 94.9979C94.6192 94.9711 94.6904 94.9641 94.7591 94.9777C94.8278 94.9914 94.8909 95.0251 94.9405 95.0746C94.9734 95.1075 94.9995 95.1466 95.0173 95.1896C95.0351 95.2326 95.0443 95.2787 95.0443 95.3252C95.0443 95.3717 95.0351 95.4178 95.0173 95.4608C94.9995 95.5038 94.9734 95.5428 94.9405 95.5757Z" fill="#E1BA48" stroke="#1F2122" stroke-width="0.432" stroke-linecap="round" stroke-linejoin="round"/>
<path d="M94.556 94.2495C94.4839 94.1715 94.392 94.1145 94.2901 94.0845C94.1883 94.0546 94.0802 94.0528 93.9773 94.0794C93.8745 94.106 93.7808 94.1599 93.7062 94.2355C93.6317 94.3111 93.5789 94.4055 93.5537 94.5087C93.4916 94.4687 93.4194 94.4471 93.3456 94.4463C93.2717 94.4454 93.1991 94.4654 93.136 94.504C93.073 94.5425 93.0221 94.598 92.9892 94.6642C92.9563 94.7303 92.9426 94.8044 92.9499 94.8779C92.9571 94.9514 92.985 95.0214 93.0302 95.0799C93.0754 95.1383 93.1361 95.1828 93.2055 95.2083C93.2748 95.2338 93.35 95.2393 93.4222 95.224C93.4945 95.2088 93.5611 95.1734 93.6142 95.1221C93.6391 95.097 93.6596 95.0678 93.6747 95.0357C93.6759 95.0443 93.6759 95.053 93.6747 95.0616C93.728 95.1184 93.792 95.164 93.863 95.196C93.934 95.228 94.0105 95.2458 94.0884 95.2482C94.1662 95.2506 94.2437 95.2376 94.3165 95.2101C94.3894 95.1825 94.456 95.1409 94.5128 95.0876C94.5695 95.0342 94.6152 94.9703 94.6472 94.8993C94.6792 94.8283 94.6969 94.7517 94.6993 94.6739C94.7017 94.5961 94.6888 94.5185 94.6612 94.4457C94.6336 94.3729 94.592 94.3062 94.5387 94.2495H94.556Z" fill="#E1BA48" stroke="#1F2122" stroke-width="0.432" stroke-linecap="round" stroke-linejoin="round"/>
<path d="M94.1025 95.9257C94.0505 95.9774 93.9843 96.0126 93.9123 96.0267C93.8403 96.0409 93.7657 96.0334 93.6979 96.0052C93.6302 95.977 93.5723 95.9294 93.5316 95.8683C93.4908 95.8073 93.4691 95.7356 93.4691 95.6622C93.4691 95.5888 93.4908 95.5171 93.5316 95.456C93.5723 95.395 93.6302 95.3473 93.6979 95.3191C93.7657 95.291 93.8403 95.2835 93.9123 95.2976C93.9843 95.3118 94.0505 95.3469 94.1025 95.3986C94.1373 95.4332 94.1648 95.4742 94.1837 95.5195C94.2025 95.5647 94.2122 95.6132 94.2122 95.6622C94.2122 95.7112 94.2025 95.7596 94.1837 95.8049C94.1648 95.8501 94.1373 95.8912 94.1025 95.9257Z" fill="#E1BA48" stroke="#1F2122" stroke-width="0.432" stroke-linecap="round" stroke-linejoin="round"/>
<path d="M143.195 95.5413L130.572 98.2197L140.136 103.386L153.144 100.518L143.195 95.5413Z" fill="#E1BA48" stroke="#1F2122" stroke-width="0.432" stroke-linecap="round" stroke-linejoin="round"/>
<path d="M127.894 95.5413L121.772 102.047L133.44 102.427L138.223 96.1158L127.894 95.5413Z" fill="#E1BA48" stroke="#1F2122" stroke-width="0.432" stroke-linecap="round" stroke-linejoin="round"/>
<path d="M151.805 90.7589C151.612 91.6363 151.238 92.4638 150.706 93.1883C150.175 93.9129 149.499 94.5185 148.72 94.9666C146.063 96.5002 144.724 97.2648 144.724 97.2648L148.742 102.047C148.742 102.047 155.248 100.708 157.732 94.202L151.805 90.7589Z" fill="#E1BA48" stroke="#1F2122" stroke-width="0.432" stroke-linecap="round" stroke-linejoin="round"/>
<path d="M114.532 52.8078L117.378 58.4799L127.617 90.3313C127.617 90.3313 127.617 96.4916 129.038 97.442C131.596 99.1484 136.43 99.1484 139.562 95.4505C142.694 91.7526 140.983 88.3441 140.983 88.3441L129.6 53.9439C129.6 53.9439 128.178 49.9609 125.051 49.395C120.765 48.6131 115.387 49.1099 114.532 52.8078Z" fill="#E1BA48" stroke="#1F2122" stroke-width="0.432" stroke-linecap="round" stroke-linejoin="round"/>
<path d="M135.946 73.9671C135.592 73.6345 135.177 73.2543 134.71 72.7834C132.961 71.0295 131.708 67.2625 131.708 67.2625V70.7746C131.708 71.5306 133.211 73.034 134.209 75.2977C135.207 77.5613 133.458 79.3109 133.458 79.3109C133.458 79.3109 133.211 77.557 132.71 75.2977C132.209 73.0383 131.207 74.2911 129.958 72.7834C129.168 71.7591 128.653 70.5503 128.459 69.2713V72.0317C128.459 73.5394 129.207 74.0405 129.958 75.2977C130.71 76.5548 129.958 80.0497 129.958 80.0497C129.514 79.0151 129.014 78.0056 128.459 77.0257C127.708 75.7729 127.207 77.0257 126.909 75.9889C126.61 74.9521 125.206 71.0036 125.206 71.0036C125.017 72.4181 124.934 73.8448 124.956 75.2717C124.956 78.0322 125.206 76.7751 125.958 78.5333C126.71 80.2916 126.956 81.0433 126.455 83.5532C126.335 84.1982 126.289 84.8547 126.317 85.5101L127.872 90.3529C127.872 90.3529 127.872 96.2972 129.241 97.213C131.699 98.8633 136.348 98.8633 139.354 95.2949C142.361 91.7266 140.724 88.4305 140.724 88.4305L135.946 73.9671Z" fill="#E1BA48"/>
<path d="M125.358 55.0801L122.532 56.1126L124.528 61.7545L127.492 60.5881L125.358 55.0801Z" fill="#1F2122" stroke="#1F2122" stroke-width="0.432" stroke-linecap="round" stroke-linejoin="round"/>
<path d="M130.948 56.3199C130.637 55.0628 129.894 54.1599 129.289 54.3111L127.362 55.0239L128.503 59.5901L130.429 58.8989C131.034 58.7304 131.263 57.5856 130.948 56.3199Z" fill="#1F2122" stroke="#1F2122" stroke-width="0.432" stroke-linecap="round" stroke-linejoin="round"/>
<path d="M129.021 57.0154C129.336 58.2725 129.103 59.4173 128.503 59.5686C127.902 59.7197 127.159 58.8169 126.844 57.5554C126.528 56.294 126.762 55.1535 127.362 55.0066C127.963 54.8598 128.706 55.754 129.021 57.0154Z" fill="#1F2122" stroke="#1F2122" stroke-width="0.432" stroke-linecap="round" stroke-linejoin="round"/>
<path d="M128.377 57.2574C128.52 57.8233 128.438 58.333 128.196 58.3935C127.954 58.454 127.639 58.0436 127.5 57.4734C127.362 56.9031 127.44 56.3977 127.682 56.3372C127.924 56.2767 128.235 56.6871 128.377 57.2574Z" fill="#E1BA48" stroke="#1F2122" stroke-width="0.432" stroke-linecap="round" stroke-linejoin="round"/>
<path d="M122.947 59.8234C122.785 59.8228 122.629 59.7645 122.506 59.6591C122.383 59.5538 122.301 59.4081 122.276 59.2481C122.25 59.0882 122.283 58.9244 122.367 58.786C122.451 58.6476 122.582 58.5437 122.735 58.4929L127.055 57.0889C127.227 57.0326 127.414 57.0465 127.576 57.1273C127.738 57.2082 127.861 57.3496 127.919 57.5209C127.949 57.6059 127.96 57.6959 127.954 57.7856C127.948 57.8753 127.924 57.9628 127.884 58.0432C127.844 58.1236 127.788 58.1952 127.72 58.2539C127.652 58.3125 127.573 58.357 127.487 58.3849L123.167 59.7845C123.097 59.8111 123.022 59.8243 122.947 59.8234Z" fill="#1F2122" stroke="#1F2122" stroke-width="0.432" stroke-linecap="round" stroke-linejoin="round"/>
<path d="M123.474 59.1106C123.159 57.8492 122.416 56.9506 121.815 57.1018L119.889 57.7887L121.029 62.3679L122.956 61.681C123.552 61.5039 123.79 60.3677 123.474 59.1106Z" fill="#1F2122" stroke="#1F2122" stroke-width="0.432" stroke-linecap="round" stroke-linejoin="round"/>
<path d="M121.547 59.7975C121.858 61.0589 121.629 62.1994 121.029 62.3506C120.428 62.5018 119.685 61.6033 119.37 60.3418C119.055 59.0804 119.288 57.9399 119.888 57.7887C120.489 57.6375 121.232 58.5361 121.547 59.7975Z" fill="#1F2122" stroke="#1F2122" stroke-width="0.432" stroke-linecap="round" stroke-linejoin="round"/>
<path d="M120.899 60.0394C121.042 60.6097 120.96 61.1194 120.718 61.1799C120.476 61.2404 120.165 60.8257 120.022 60.2598C119.88 59.6938 119.962 59.1841 120.204 59.1236C120.446 59.0631 120.761 59.4735 120.899 60.0394Z" fill="#E1BA48" stroke="#1F2122" stroke-width="0.432" stroke-linecap="round" stroke-linejoin="round"/>
<path d="M135.302 82.9397L132.481 83.9722L134.477 89.6141L137.436 88.4434L135.302 82.9397Z" fill="#1F2122" stroke="#1F2122" stroke-width="0.432" stroke-linecap="round" stroke-linejoin="round"/>
<path d="M140.897 84.184C140.581 82.9225 139.838 82.024 139.238 82.1752L137.311 82.862L138.451 87.424L140.378 86.7371C140.979 86.5859 141.212 85.4454 140.897 84.184Z" fill="#1F2122" stroke="#1F2122" stroke-width="0.432" stroke-linecap="round" stroke-linejoin="round"/>
<path d="M138.97 84.8708C139.285 86.1322 139.052 87.277 138.451 87.4239C137.851 87.5708 137.108 86.6766 136.793 85.4151C136.477 84.1537 136.711 83.0132 137.311 82.862C137.911 82.7108 138.672 83.6137 138.97 84.8708Z" fill="#1F2122" stroke="#1F2122" stroke-width="0.432" stroke-linecap="round" stroke-linejoin="round"/>
<path d="M138.322 85.1127C138.464 85.6829 138.382 86.1927 138.14 86.2532C137.898 86.3136 137.587 85.9032 137.445 85.333C137.302 84.7628 137.384 84.2573 137.626 84.1968C137.868 84.1364 138.184 84.5467 138.322 85.1127Z" fill="#E1BA48" stroke="#1F2122" stroke-width="0.432" stroke-linecap="round" stroke-linejoin="round"/>
<path d="M132.892 87.6832C132.728 87.6848 132.569 87.6272 132.444 87.5211C132.319 87.4151 132.236 87.2675 132.211 87.1054C132.186 86.9434 132.22 86.7777 132.307 86.6387C132.394 86.4996 132.528 86.3966 132.684 86.3483L137.004 84.9486C137.089 84.9203 137.179 84.9089 137.269 84.9153C137.358 84.9217 137.446 84.9456 137.526 84.9857C137.606 85.0258 137.678 85.0813 137.736 85.1491C137.795 85.2169 137.84 85.2955 137.868 85.3806C137.897 85.4657 137.908 85.5556 137.902 85.645C137.895 85.7345 137.871 85.8219 137.831 85.9021C137.791 85.9823 137.736 86.0539 137.668 86.1126C137.6 86.1714 137.521 86.2163 137.436 86.2446L133.116 87.6443C133.044 87.6695 132.968 87.6826 132.892 87.6832Z" fill="#1F2122" stroke="#1F2122" stroke-width="0.432" stroke-linecap="round" stroke-linejoin="round"/>
<path d="M133.419 86.966C133.103 85.7089 132.36 84.806 131.76 84.9572L129.833 85.6484L130.974 90.2103L132.9 89.5191C133.488 89.3722 133.734 88.2274 133.419 86.966Z" fill="#1F2122" stroke="#1F2122" stroke-width="0.432" stroke-linecap="round" stroke-linejoin="round"/>
<path d="M131.492 87.6573C131.807 88.9144 131.574 90.0592 130.974 90.2104C130.373 90.3616 129.63 89.4587 129.315 88.2016C128.999 86.9445 129.233 85.7954 129.833 85.6485C130.434 85.5016 131.177 86.3958 131.492 87.6573Z" fill="#1F2122" stroke="#1F2122" stroke-width="0.432" stroke-linecap="round" stroke-linejoin="round"/>
<path d="M130.848 87.8991C130.991 88.465 130.909 88.9748 130.663 89.0353C130.416 89.0957 130.11 88.6853 129.967 88.1194C129.824 87.5535 129.907 87.0394 130.153 86.9789C130.399 86.9185 130.706 87.3289 130.848 87.8991Z" fill="#E1BA48" stroke="#1F2122" stroke-width="0.432" stroke-linecap="round" stroke-linejoin="round"/>
</g>
<defs>
<clipPath id="clip0_2_182731">
<rect width="216" height="151" fill="white"/>
</clipPath>
</defs>
</svg>
